<?xml version="1.0" encoding="utf-8"?>
<!-- Generator: Adobe Illustrator 23.0.0, SVG Export Plug-In . SVG Version: 6.00 Build 0)  -->
<svg version="1.1" id="Layer_1" xmlns="http://www.w3.org/2000/svg" xmlns:xlink="http://www.w3.org/1999/xlink" x="0px" y="0px"
	 viewBox="0 0 50 50" style="enable-background:new 0 0 50 50;" xml:space="preserve">
<style type="text/css">
	.st0{fill:#D0B2D5;}
</style>
<g>
	<path class="st0" d="M23.41,16.37c-0.38,0-0.68,0.31-0.68,0.68c0,0.38,0.31,0.68,0.68,0.68c0.38,0,0.68-0.31,0.68-0.68
		C24.1,16.67,23.79,16.37,23.41,16.37z M23.41,17.37c-0.17,0-0.32-0.14-0.32-0.32s0.14-0.32,0.32-0.32s0.32,0.14,0.32,0.32
		S23.59,17.37,23.41,17.37z"/>
	<path class="st0" d="M26.64,17.73c0.38,0,0.68-0.31,0.68-0.68c0-0.38-0.31-0.68-0.68-0.68s-0.68,0.31-0.68,0.68
		C25.96,17.43,26.26,17.73,26.64,17.73z M26.64,16.73c0.17,0,0.32,0.14,0.32,0.32s-0.14,0.32-0.32,0.32s-0.32-0.14-0.32-0.32
		S26.46,16.73,26.64,16.73z"/>
	<path class="st0" d="M40.06,15.04C37.53,10.77,31.87,6.8,30,6.45c-0.36-0.06-0.63-0.03-0.84,0.13c-0.01,0-0.01,0.01-0.02,0.01
		c-0.94,0.74-0.58,1.69-0.28,2.46c0.37,0.94,0.69,1.84-0.32,3c-1.14-0.54-2.33-0.83-3.49-0.83c-1.36,0-2.57,0.38-3.56,0.86
		c-1.05-1.18-0.72-2.08-0.35-3.03c0.3-0.77,0.67-1.72-0.29-2.46c-0.21-0.16-0.49-0.2-0.85-0.14c-1.87,0.36-7.53,4.32-10.06,8.59
		C7.17,19.71,6.57,25.07,6.55,25.3c-0.02,0.19,0.07,0.38,0.23,0.48s0.37,0.1,0.53-0.01c0.02-0.01,1.6-0.99,2.81-0.55
		c1.4,0.51,1.89,2.13,1.9,2.15c0,0.01,0.01,0.02,0.02,0.03c0.03,0.09,0.08,0.17,0.16,0.23c0,0,0,0,0,0
		c0.05,0.04,0.12,0.05,0.19,0.06c0.04,0.01,0.07,0.04,0.11,0.04c0,0,0,0,0.01,0c0.02,0,0.04,0,0.06,0c0.04-0.01,0.08-0.02,0.11-0.04
		c0.02-0.01,0.03-0.01,0.05-0.02c0.06-0.03,0.11-0.08,0.16-0.13c0-0.01,0.01-0.01,0.02-0.01c0.01-0.02,1.23-1.58,2.87-1.87
		c0.24,1.36,1.95,3.19,2.95,4.14c-0.84,0.37-2.15,1.1-2.92,2.25c-0.1,0.15-0.11,0.35-0.02,0.51c0.09,0.16,0.26,0.26,0.44,0.26h0.04
		v4.16c0,0.28,0.22,0.5,0.5,0.5h1.69v5.6c0,0.28,0.22,0.5,0.5,0.5s0.5-0.22,0.5-0.5v-5.6h5.09v5.6c0,0.28,0.22,0.5,0.5,0.5
		s0.5-0.22,0.5-0.5v-5.6h5.11v5.6c0,0.28,0.22,0.5,0.5,0.5s0.5-0.22,0.5-0.5v-5.6h1.68c0.28,0,0.5-0.22,0.5-0.5v-4.16h0.03
		c0.18,0,0.35-0.1,0.44-0.26c0.09-0.16,0.08-0.36-0.02-0.51c-0.77-1.15-2.08-1.88-2.92-2.25c1-0.95,2.71-2.77,2.95-4.13
		c1.59,0.34,2.77,1.84,2.78,1.86c0,0.01,0.01,0.01,0.02,0.01c0.04,0.05,0.1,0.1,0.16,0.13c0.01,0.01,0.02,0.01,0.04,0.01
		c0.04,0.02,0.08,0.03,0.13,0.04c0.02,0,0.04,0,0.06,0c0.11,0,0.22-0.04,0.3-0.1c0,0,0,0,0,0c0.08-0.06,0.13-0.14,0.16-0.23
		c0-0.01,0.02-0.02,0.02-0.03c0-0.02,0.49-1.63,1.9-2.14c1.22-0.44,2.8,0.54,2.81,0.55c0.16,0.1,0.37,0.11,0.53,0
		c0.16-0.1,0.25-0.29,0.23-0.48C43.43,25.07,42.83,19.71,40.06,15.04z M29.87,22.84c0,0.84,0.21,1.28,0.37,1.64
		c0.13,0.28,0.22,0.48,0.22,0.87c0,0.99-0.37,1.55-0.8,2.2c-0.46,0.69-0.98,1.48-0.98,2.79c0,1.13,0.69,1.6,1.19,1.95
		c0.44,0.3,0.59,0.44,0.59,0.74c0,1.01-1.34,1.27-2.05,1.27c-0.84,0-1.81-0.47-2.65-1.2c0.93-1.06,1.56-2.4,1.56-3.78v-7.47
		c0.71-1.01,1.22-2.36,1.47-3.5c0.97-0.07,2.03-0.62,2.21-2.62c0.01-0.09,0.11-0.2,0.24-0.31c0.61,0.76,0.99,1.52,0.99,2.05
		c0,0.89-0.67,1.94-1.25,2.86C30.41,21.22,29.87,22.07,29.87,22.84z M20.22,32.29c0.5-0.35,1.19-0.83,1.19-1.95
		c0-1.31-0.52-2.1-0.98-2.79c-0.43-0.65-0.8-1.21-0.8-2.2c0-0.39,0.09-0.59,0.22-0.87c0.17-0.35,0.37-0.79,0.37-1.64
		c0-0.78-0.54-1.63-1.12-2.53c-0.59-0.92-1.25-1.96-1.25-2.86c0-0.53,0.39-1.3,1.01-2.07c0.13,0.12,0.25,0.24,0.26,0.33
		c0.18,1.98,1.22,2.53,2.17,2.62c0.25,1.14,0.76,2.49,1.47,3.51v7.47c0,1.38,0.64,2.72,1.56,3.78c-0.84,0.73-1.82,1.2-2.65,1.2
		c-0.71,0-2.05-0.27-2.05-1.27C19.63,32.73,19.78,32.59,20.22,32.29z M19.04,14.18c0,0,0.01-0.03,0.05-0.1
		c0.32-0.43,1.7,0.01,2.79,0.57c-0.47,0.65-0.76,1.44-0.76,2.3c0,0.11,0.01,0.23,0.02,0.35c-0.59-0.17-0.92-0.68-1.01-1.66
		c-0.05-0.53-0.44-0.87-0.76-1.13c-0.06-0.05-0.13-0.11-0.2-0.17c-0.01-0.01-0.01-0.02-0.02-0.03c-0.01-0.01-0.02-0.01-0.02-0.01
		C19.08,14.24,19.04,14.2,19.04,14.18z M27.98,16.95c0,1.89-1.5,5.4-2.93,5.4s-2.93-3.51-2.93-5.4c0-1.61,1.31-2.93,2.93-2.93
		S27.98,15.33,27.98,16.95z M23.77,29.32V22.9c0.39,0.28,0.82,0.44,1.28,0.44c0.46,0,0.88-0.17,1.27-0.44v6.42
		c0,1.09-0.52,2.18-1.27,3.07C24.3,31.51,23.77,30.41,23.77,29.32z M30.98,14.32c0,0-0.01,0-0.01,0.01c0,0-0.01,0.01-0.01,0.01
		c-0.06,0.06-0.13,0.12-0.19,0.16c-0.32,0.27-0.71,0.6-0.76,1.13c-0.09,1.02-0.41,1.53-1.05,1.68c0.01-0.13,0.02-0.25,0.02-0.37
		c0-0.85-0.28-1.64-0.75-2.28c1.09-0.56,2.5-1.02,2.82-0.58c0.04,0.06,0.05,0.09,0.06,0.09C31.09,14.2,31.04,14.26,30.98,14.32z
		 M25.05,12.21c1.23,0,2.52,0.4,3.73,1.1c-0.51,0.2-0.96,0.43-1.26,0.6c-0.68-0.55-1.53-0.89-2.46-0.89c-0.93,0-1.77,0.34-2.45,0.88
		c-0.3-0.17-0.76-0.4-1.26-0.59C22.54,12.61,23.83,12.21,25.05,12.21z M10.47,24.28c-0.34-0.12-0.69-0.17-1.03-0.17
		c-0.65,0-1.28,0.18-1.76,0.37c0.29-1.73,1.13-5.56,3.12-8.93c2.08-3.5,6.27-6.66,8.34-7.76c-1.36,1.63-3.73,4.89-5.29,9.48
		c-1.08,3.19-1.53,6.36-1.72,8.23C11.75,25.02,11.2,24.54,10.47,24.28z M13.1,25.92c0.16-1.77,0.6-5.08,1.7-8.33
		c1.74-5.12,4.59-8.61,5.67-9.8c0,0.2-0.09,0.46-0.26,0.89c-0.36,0.94-0.87,2.32,0.39,3.88c-0.21,0.13-0.4,0.25-0.57,0.38
		c-0.7-0.09-1.35,0.01-1.74,0.54c-0.35,0.47-0.29,0.87-0.11,1.18c-0.83,0.99-1.32,2-1.32,2.8c0,1.19,0.75,2.36,1.41,3.39
		c0.47,0.74,0.96,1.5,0.96,1.99c0,0.08-0.01,0.14-0.01,0.21c-1.14,0.02-2.93,0.2-3.38,1.59C14.71,24.78,13.76,25.36,13.1,25.92z
		 M19.81,30.45c0.17-0.05,0.3-0.2,0.34-0.37c0.04-0.18-0.02-0.36-0.16-0.48c-1.26-1.12-3.26-3.26-3.26-4.25
		c0-0.7,0.41-1.18,2.21-1.28c-0.15,0.31-0.31,0.67-0.31,1.28c0,1.29,0.51,2.06,0.97,2.75c0.43,0.66,0.81,1.22,0.81,2.24
		c0,0.58-0.27,0.79-0.76,1.13c-0.15,0.1-0.3,0.22-0.45,0.36h-1.86C18.39,30.9,19.79,30.46,19.81,30.45z M32.83,36.49H17.27v-3.66
		h1.4c-0.01,0.07-0.03,0.13-0.03,0.2c0,1.56,1.58,2.27,3.05,2.27c1.09,0,2.33-0.57,3.36-1.48c1.03,0.91,2.27,1.48,3.36,1.48
		c1.47,0,3.05-0.71,3.05-2.27c0-0.08-0.03-0.13-0.03-0.2h1.4V36.49z M30.1,29.6c-0.13,0.12-0.19,0.3-0.16,0.48
		c0.04,0.18,0.17,0.32,0.34,0.37c0.02,0.01,1.41,0.45,2.47,1.37H30.9c-0.15-0.13-0.3-0.25-0.45-0.36c-0.48-0.34-0.76-0.56-0.76-1.13
		c0-1.01,0.38-1.58,0.81-2.24c0.45-0.68,0.97-1.46,0.97-2.75c0-0.61-0.16-0.97-0.31-1.28c1.41,0.08,1.96,0.39,2.13,0.86
		c-0.02,0.05-0.03,0.1-0.03,0.15c0,0.11,0.04,0.21,0.1,0.3C33.32,26.38,31.35,28.49,30.1,29.6z M34.26,24.65
		c-0.44-1.4-2.24-1.58-3.38-1.6c0-0.07-0.01-0.13-0.01-0.21c0-0.49,0.49-1.25,0.96-1.99c0.66-1.04,1.41-2.21,1.41-3.39
		c0-0.79-0.48-1.78-1.3-2.77c0.19-0.32,0.27-0.72-0.09-1.21c-0.4-0.54-1.07-0.64-1.79-0.54c-0.21-0.15-0.42-0.29-0.64-0.42
		c1.23-1.55,0.72-2.92,0.36-3.84c-0.17-0.45-0.26-0.72-0.27-0.91c1.07,1.17,3.94,4.66,5.68,9.81c1.1,3.25,1.53,6.55,1.7,8.33
		C36.26,25.37,35.35,24.81,34.26,24.65z M39.53,24.28c-0.73,0.27-1.27,0.74-1.66,1.22c-0.19-1.88-0.64-5.05-1.72-8.23
		c-1.53-4.52-3.85-7.75-5.22-9.4c2.14,1.13,6.23,4.24,8.27,7.68c1.99,3.36,2.83,7.2,3.12,8.93C41.59,24.18,40.52,23.92,39.53,24.28z
		"/>
</g>
</svg>
