<?xml version="1.0" encoding="utf-8"?>
<!-- Generator: Adobe Illustrator 23.0.0, SVG Export Plug-In . SVG Version: 6.00 Build 0)  -->
<svg version="1.1" id="Layer_1" xmlns="http://www.w3.org/2000/svg" xmlns:xlink="http://www.w3.org/1999/xlink" x="0px" y="0px"
	 viewBox="0 0 50 50" style="enable-background:new 0 0 50 50;" xml:space="preserve">
<style type="text/css">
	.st0{fill:#D0B2D5;}
</style>
<path class="st0" d="M33.2,22.2c0,0.4,0.3,0.7,0.7,0.7s0.7-0.3,0.7-0.7c0-0.1,0-0.1,0.1-0.2c0.3-0.6,1.7-1.2,3.5-1.2
	c2.2,0,3.5,0.8,3.5,1.4c0,0.4,0.3,0.7,0.7,0.7s0.7-0.3,0.7-0.7c0-6.5-6.1-11-12.8-11.3V8.7c0-0.4-0.3-0.7-0.7-0.7
	C29.3,8,29,8.3,29,8.7v2.1c-6.7,0.3-12.8,4.9-12.8,11.3c0,0.4,0.3,0.7,0.7,0.7s0.7-0.3,0.7-0.7c0-0.6,1.4-1.4,3.5-1.4
	s3.5,0.8,3.5,1.4c0,0.4,0.3,0.7,0.7,0.7c0.4,0,0.7-0.3,0.7-0.7c0-0.1,0-0.1,0.1-0.2c0.3-0.5,1.3-1,2.8-1.2v11.3h-7.8
	c-0.2,0-0.5-0.1-0.7-0.3l-6.8-6C13,25.1,12,25,11.1,25.4c-0.5,0.2-0.9,0.6-1.1,1C9.4,26,8.7,26,8.1,26.3c-1.4,0.6-1.7,2.5-0.5,3.5
	l9.5,8.5c0.3,0.3,0.7,0.5,1.1,0.7v2.4c0,0.4,0.3,0.7,0.7,0.7h5.7c0.4,0,0.7-0.3,0.7-0.7v-2.1h7.9v2.1c0,0.4,0.3,0.7,0.7,0.7h5.7
	c0.4,0,0.7-0.3,0.7-0.7v-2.1H41c1.2,0,2.1-1,2.1-2.1c0-1.2-1-2.1-2.1-2.1h-0.7v-0.4c0-1.3-1.1-2.4-2.4-2.4h-7.5V20.8
	C32.1,20.9,33.2,21.7,33.2,22.2z M23.9,40.6h-4.3v-1.4h4.3V40.6z M38.9,40.6h-4.3v-1.4h4.3V40.6z M38.9,34.5v0.4h-6.8
	c-0.4,0-0.7,0.3-0.7,0.7c0,0.4,0.3,0.7,0.7,0.7H41c0.4,0,0.7,0.3,0.7,0.7c0,0.4-0.3,0.7-0.7,0.7H19.4c-0.5,0-1-0.2-1.4-0.5l-9.5-8.5
	c-0.4-0.3-0.3-1,0.2-1.2c0.1,0,0.4-0.2,0.8,0.1l9.1,8.1c0.4,0.3,0.9,0.5,1.4,0.5h6.4c0.4,0,0.7-0.3,0.7-0.7c0-0.4-0.3-0.7-0.7-0.7
	H20c-0.2,0-0.3-0.1-0.5-0.2l-8.4-7.4c0.1-0.3,0.3-0.5,0.5-0.6c0.4-0.2,0.8-0.1,1.1,0.2l6.8,6c0.4,0.4,1,0.6,1.6,0.6h16.7
	C38.5,33.5,38.9,34,38.9,34.5z M41.4,20c-0.9-0.4-2-0.7-3.3-0.7c-1.4,0-2.7,0.3-3.6,0.8c-0.1-2.5-0.7-5.7-2.2-7.7
	C36.9,13.4,40.4,16.3,41.4,20z M21.2,19.3c-1.3,0-2.4,0.2-3.3,0.7c1-3.7,4.5-6.6,9-7.5c-1.5,2-2.1,5.2-2.2,7.7
	C23.9,19.6,22.6,19.3,21.2,19.3z M26.2,20.1c0.3-4.7,2-7.9,3.5-7.9c1.5,0,3.2,3.2,3.5,7.9c-0.9-0.5-2.1-0.8-3.5-0.8
	C28.3,19.3,27.1,19.6,26.2,20.1z"/>
</svg>
