<?xml version="1.0" encoding="utf-8"?>
<!-- Generator: Adobe Illustrator 21.1.0, SVG Export Plug-In . SVG Version: 6.00 Build 0)  -->
<svg version="1.1" id="Layer_1" xmlns="http://www.w3.org/2000/svg" xmlns:xlink="http://www.w3.org/1999/xlink" x="0px" y="0px"
	 viewBox="0 0 100 100" style="enable-background:new 0 0 100 100;" xml:space="preserve">
<style type="text/css">
	.st0{fill:#D0B3D5;}
</style>
<g>
	<path class="st0" d="M45.3,77.3c-0.7,0-1.3,0.3-1.8,0.7c-0.5,0.5-0.7,1.1-0.7,1.8s0.3,1.3,0.7,1.8s1.1,0.7,1.8,0.7s1.3-0.3,1.8-0.7
		c0.5-0.5,0.7-1.1,0.7-1.8s-0.3-1.3-0.7-1.8C46.6,77.6,46,77.3,45.3,77.3z"/>
	<path class="st0" d="M86.6,60.8c0,4.6-3.8,8.4-8.4,8.4c-1.4,0-2.5,1.1-2.5,2.5s1.1,2.5,2.5,2.5c7.3,0,13.3-6,13.3-13.3
		c0-1.4-1.1-2.5-2.5-2.5S86.6,59.4,86.6,60.8z"/>
	<path class="st0" d="M95.8,48.4c-3.9-5.5-10.3-9.1-17.5-9.1c-1.9,0-3.7,0.3-5.5,0.7l-8.3-21.1h10.1c0.6,0,1.1,0.4,1.3,0.9
		s0,1-0.2,1.2c-0.2,0.2-0.5,0.5-1.1,0.5H72c-1.4,0-2.5,1.1-2.5,2.5s1.1,2.5,2.5,2.5h2.5c2,0,3.9-1,5.1-2.6c1.2-1.6,1.5-3.7,0.9-5.6
		c-0.8-2.6-3.3-4.4-6-4.4H60.8c-0.8,0-1.6,0.4-2,1.1c-0.5,0.7-0.6,1.5-0.3,2.3l4.7,11.9H42.6l-1.9-4.3L40,23.1
		c-0.4-1-1.3-1.6-2.3-1.6H27c-2.1,0-4,1-5.2,2.8s-1.4,3.9-0.7,5.9c1,2.4,3.3,4,5.9,4h8.2l-4,6.9c-2.6-1.1-5.5-1.8-8.5-1.8
		c-11.9,0-21.5,9.7-21.5,21.5c0,6.7,3,12.6,7.8,16.6H3.6c-1.4,0-2.5,1.1-2.5,2.5s1.1,2.5,2.5,2.5h19c11,0,20.1-8.3,21.4-19h9.7
		c0.8,0,1.6-0.4,2.1-1.1c0.5-0.7,0.5-1.6,0.2-2.3L44.8,34.1h20.4l3,7.7c-6.8,3.6-11.4,10.8-11.4,19c0,6.7,3,12.6,7.8,16.6h-8.8
		c-1.4,0-2.5,1.1-2.5,2.5s1.1,2.5,2.5,2.5h22.5c11.9,0,21.5-9.7,21.5-21.5c0-2.6-0.5-5.2-1.3-7.5C97.5,51,95.8,48.4,95.8,48.4z
		 M25.7,28.3c-0.2-0.6,0-1,0.1-1.2s0.5-0.6,1.1-0.6H36l1,2.7H27C26.4,29.2,25.9,28.9,25.7,28.3z M22.6,77.3
		c-9.1,0-16.6-7.4-16.6-16.6s7.4-16.6,16.6-16.6c2.1,0,4.2,0.4,6,1.1l-8.2,14.2c-0.4,0.8-0.4,1.7,0,2.5s1.3,1.2,2.1,1.2h8
		c-1.1,3.4-4.2,5.9-8,5.9c-1.4,0-2.5,1.1-2.5,2.5s1.1,2.5,2.5,2.5c6.5,0,11.9-4.7,13.1-10.8H39C37.8,71.2,30.9,77.3,22.6,77.3z
		 M39,58.3H26.9l6-10.5C36.1,50.4,38.4,54.1,39,58.3z M44,58.3c-0.7-6-3.9-11.3-8.5-14.8l4.5-7.9l9.9,22.7L44,58.3L44,58.3z
		 M78.2,77.3c-9.1,0-16.6-7.4-16.6-16.6c0-6.1,3.3-11.5,8.3-14.3l6,15.2c0.4,1,1.3,1.6,2.3,1.6c0.3,0,0.6-0.1,0.9-0.2
		c1.3-0.5,1.9-1.9,1.4-3.2l-6-15.2c1.2-0.3,2.4-0.4,3.7-0.4c9.1,0,16.6,7.4,16.6,16.6S87.3,77.3,78.2,77.3z"/>
</g>
</svg>
