<?xml version="1.0" encoding="utf-8"?>
<!-- Generator: Adobe Illustrator 23.0.0, SVG Export Plug-In . SVG Version: 6.00 Build 0)  -->
<svg version="1.1" id="Layer_1" xmlns="http://www.w3.org/2000/svg" xmlns:xlink="http://www.w3.org/1999/xlink" x="0px" y="0px"
	 viewBox="0 0 50 50" style="enable-background:new 0 0 50 50;" xml:space="preserve">
<style type="text/css">
	.st0{fill:#D0B2D5;}
</style>
<g>
	<path class="st0" d="M37.9,26.5c-0.9,0-1.8,0.1-2.7,0.4l-4-10.2h4.9c0.9,0,1.2,0.5,1.2,0.9c0,0.5-0.4,1-1.2,1H35
		c-0.4,0-0.8,0.3-0.8,0.8s0.3,0.8,0.8,0.8h1.1c1.8,0,2.7-1.3,2.7-2.5c0-1.2-0.9-2.4-2.7-2.4h-6c-0.2,0-0.5,0.1-0.6,0.3
		c-0.1,0.2-0.2,0.5-0.1,0.7l2.3,5.8H21.6l-1.3-3c-0.1-0.3-0.4-0.5-0.7-0.5h-5.2c-0.7,0-1.3,0.3-1.7,0.8c-0.4,0.4-0.5,1-0.5,1.7
		c0,1.2,0.8,2.4,2.3,2.4h4.7l-2.3,4c-1.3-0.6-2.7-1-4.2-1c-5.2,0-9.4,4.2-9.4,9.4c0,3.3,1.7,6.3,4.4,7.9H4c-0.4,0-0.8,0.3-0.8,0.8
		s0.3,0.8,0.8,0.8h8.7c4.9,0,9-3.8,9.4-8.6h4.7c0.3,0,0.5-0.1,0.6-0.3c0.1-0.2,0.2-0.5,0.1-0.7l-5.3-12.2h10.1l1.5,3.9
		c-3.2,1.5-5.3,4.8-5.3,8.5c0,3.3,1.7,6.3,4.4,7.9h-5.5c-0.4,0-0.8,0.3-0.8,0.8s0.3,0.8,0.8,0.8h10.5c5.2,0,9.4-4.2,9.4-9.4
		C47.4,30.7,43.1,26.5,37.9,26.5z M14.4,22c-0.7,0-0.8-0.8-0.8-0.9c0,0,0-1,0.8-1h4.7l0.8,1.9H14.4z M12.7,43.9
		c-4.4,0-7.9-3.6-7.9-7.9c0-4.4,3.6-7.9,7.9-7.9c1.2,0,2.4,0.3,3.4,0.8l-3.9,6.9c-0.1,0.2-0.1,0.5,0,0.7c0.1,0.2,0.4,0.4,0.6,0.4h4
		c-0.4,1.9-2,3.4-4.1,3.4c-0.4,0-0.8,0.3-0.8,0.8s0.3,0.8,0.8,0.8c2.9,0,5.2-2.1,5.6-4.9h2.3C20.2,40.7,16.8,43.9,12.7,43.9z
		 M14.2,35.2l3.3-5.7c1.8,1.3,3,3.4,3.2,5.7H14.2z M25.7,35.2h-3.6c-0.2-2.9-1.7-5.4-4-7l2.5-4.4L25.7,35.2z M37.9,43.9
		c-4.4,0-7.9-3.6-7.9-7.9c0-3.1,1.8-5.8,4.4-7.1l2.9,7.5c0.1,0.3,0.4,0.5,0.7,0.5c0.1,0,0.2,0,0.3-0.1c0.4-0.1,0.6-0.6,0.4-1
		l-2.9-7.5c0.7-0.2,1.4-0.3,2.2-0.3c4.4,0,7.9,3.6,7.9,7.9C45.9,40.3,42.3,43.9,37.9,43.9z"/>
	<path class="st0" d="M42.8,35.2c-0.4,0-0.8,0.3-0.8,0.8c0,2.3-1.9,4.2-4.2,4.2c-0.4,0-0.8,0.3-0.8,0.8s0.3,0.8,0.8,0.8
		c3.1,0,5.7-2.5,5.7-5.7C43.6,35.6,43.2,35.2,42.8,35.2z"/>
	<path class="st0" d="M24.3,43.9c-0.4,0-0.8,0.3-0.8,0.8s0.3,0.8,0.8,0.8S25,45,25,44.6S24.7,43.9,24.3,43.9z"/>
</g>
</svg>
