<?xml version="1.0" encoding="utf-8"?>
<!-- Generator: Adobe Illustrator 21.1.0, SVG Export Plug-In . SVG Version: 6.00 Build 0)  -->
<svg version="1.1" id="Layer_1" xmlns="http://www.w3.org/2000/svg" xmlns:xlink="http://www.w3.org/1999/xlink" x="0px" y="0px"
	 viewBox="0 0 100 100" style="enable-background:new 0 0 100 100;" xml:space="preserve">
<style type="text/css">
	.st0{fill:#D0B3D5;}
</style>
<g>
	<circle class="st0" cx="65.3" cy="46.3" r="1.9"/>
	<path class="st0" d="M67.2,56.4c0.2-1-0.6-2-1.6-2.1c-1-0.2-2,0.5-2.1,1.6c-0.5,3.5-3.4,6.3-7.8,7.6c-4.7,1.4-11.1,1-15.1-3.3
		c-0.7-0.8-1.9-0.8-2.6-0.1s-0.8,1.9-0.1,2.6c2.3,2.5,5.4,4.2,9,4.9c1.3,0.3,2.6,0.4,3.9,0.4c2,0,4.1-0.3,6-0.9
		C62.6,65.3,66.5,61.3,67.2,56.4z"/>
	<path class="st0" d="M91.6,37.8c-3.4-3.9-8.1-6.5-13.7-7.5c5.4-3.6,10.1-7.3,13.4-10.4c5.1-4.8,6.8-8.2,5.3-10.7
		C95,6.4,90.4,6.4,82.2,9.2c-6.9,2.3-15.6,6.4-24.3,11.5c-1.5,0.9-3,1.8-4.5,2.7c-1.1-3.1-0.4-6.6,2-9.6c1.8-2.3,2.2-5.2,1-7.5
		c-1.2-2.5-3.8-4-7.1-4h-0.1C38,2.2,26.9,6.7,18,14.9C9.2,23,3.8,33.8,2.8,45.3c-1.2,13.8,3.2,27,12.4,37c9,9.8,21.9,15.5,35.2,15.5
		c7.2,0,13.9-1.3,20-3.9c5.6-2.4,10.5-5.7,14.7-10c3.9-4,6.9-8.6,9.1-13.6c2.1-4.8,3.2-9.9,3.2-14.8C97.5,48.5,95.5,42.3,91.6,37.8z
		 M59.8,23.9c8.1-4.7,16.1-8.5,22.7-10.8c7.2-2.6,10.1-2.4,10.8-2.1c-0.1,0.4-0.6,2.4-5.3,6.7c-3.9,3.6-9.7,7.9-16.2,12
		c-2.1,1.3-4.2,2.6-6.4,3.9c-3,1.7-6,3.3-8.9,4.8c-0.6-1.7-1.3-3.4-2.2-4.9c-0.9-1.5-1.9-3-3-4.3c0.8-0.5,1.6-1.1,2.5-1.6
		C55.7,26.4,57.7,25.1,59.8,23.9z M39.2,45.6c-0.2-1-0.5-1.9-1.1-2.8c-0.5-0.8-1.1-1.6-1.8-2.2c2.9-2.8,7-6,11.8-9.3
		c1.1,1.2,2.1,2.6,2.9,4.1c0.9,1.5,1.6,3.1,2.1,4.7C47.9,42.6,43,44.5,39.2,45.6z M32.6,42.5c0.9,0.5,1.7,1.2,2.3,2.2
		c0.5,1,0.8,2,0.7,3.2c-0.1,1.9-1.2,3.6-2.8,4.5c-1.8,1-7.8,1.2-12.8,0.9c2.3-4.4,5.4-9.6,7.2-10.6C28.9,41.7,30.9,41.6,32.6,42.5z
		 M93.7,55.4C93.4,74,76.8,94.1,50.4,94.1c-12.3,0-24.1-5.2-32.4-14.3C9.4,70.5,5.4,58.4,6.5,45.6C8.4,23.8,27.6,5.9,49.4,5.9h0.1
		c1.8,0,3.1,0.7,3.7,1.9c0.5,1.1,0.3,2.4-0.6,3.6c-3.4,4.3-4.2,9.5-2.3,13.9c-1,0.6-2,1.3-2.9,1.9l0,0c-5.9,4-11,8-14.3,11.3
		c-2.5-0.9-5.3-0.6-7.7,0.8c-3.9,2.2-9,12.7-9.9,14.8c-0.3,0.5-0.2,1.2,0.1,1.7c0.3,0.5,0.8,0.9,1.5,0.9c1,0.1,4,0.3,7.2,0.3
		c4,0,8.4-0.3,10.5-1.5c2.3-1.3,3.9-3.5,4.5-6.1c4.6-1.2,10.6-3.5,17-6.7c3.6-1.8,7.4-3.8,11.1-5.9c1.9-1.1,3.8-2.2,5.6-3.4
		c0,0,0,0,0,0C88.4,33.9,93.8,45.1,93.7,55.4z"/>
	<path class="st0" d="M35.4,28.7c4.1,0,7.5-3.4,7.5-7.5s-3.3-7.5-7.5-7.5s-7.5,3.4-7.5,7.5S31.3,28.7,35.4,28.7z M35.4,17.5
		c2.1,0,3.7,1.7,3.7,3.7s-1.7,3.7-3.7,3.7s-3.7-1.7-3.7-3.7S33.4,17.5,35.4,17.5z"/>
	<path class="st0" d="M26.1,63.9c-4.1,0-7.5,3.3-7.5,7.5s3.4,7.5,7.5,7.5s7.5-3.3,7.5-7.5S30.2,63.9,26.1,63.9z M26.1,75.1
		c-2.1,0-3.7-1.7-3.7-3.7c0-2.1,1.7-3.7,3.7-3.7s3.7,1.7,3.7,3.7C29.8,73.4,28.1,75.1,26.1,75.1z"/>
	<path class="st0" d="M44.8,75.1c-4.1,0-7.5,3.3-7.5,7.5s3.3,7.5,7.5,7.5s7.5-3.3,7.5-7.5S48.9,75.1,44.8,75.1z M44.8,86.3
		c-2.1,0-3.7-1.7-3.7-3.7c0-2.1,1.7-3.7,3.7-3.7s3.7,1.7,3.7,3.7C48.5,84.6,46.8,86.3,44.8,86.3z"/>
	<path class="st0" d="M67.2,71.4c-4.1,0-7.5,3.3-7.5,7.5s3.3,7.5,7.5,7.5s7.5-3.3,7.5-7.5S71.3,71.4,67.2,71.4z M67.2,82.6
		c-2.1,0-3.7-1.7-3.7-3.7c0-2.1,1.7-3.7,3.7-3.7s3.7,1.7,3.7,3.7C70.9,80.9,69.2,82.6,67.2,82.6z"/>
	<path class="st0" d="M82.1,52.7c-4.1,0-7.5,3.3-7.5,7.5s3.3,7.5,7.5,7.5s7.5-3.3,7.5-7.5S86.2,52.7,82.1,52.7z M82.1,63.9
		c-2.1,0-3.7-1.7-3.7-3.7s1.7-3.7,3.7-3.7c2.1,0,3.7,1.7,3.7,3.7S84.2,63.9,82.1,63.9z"/>
</g>
</svg>
