<?xml version="1.0" encoding="utf-8"?>
<!-- Generator: Adobe Illustrator 23.0.0, SVG Export Plug-In . SVG Version: 6.00 Build 0)  -->
<svg version="1.1" id="Layer_1" xmlns="http://www.w3.org/2000/svg" xmlns:xlink="http://www.w3.org/1999/xlink" x="0px" y="0px"
	 viewBox="0 0 50 50" style="enable-background:new 0 0 50 50;" xml:space="preserve">
<style type="text/css">
	.st0{fill:#D0B2D5;}
</style>
<g>
	<circle class="st0" cx="31" cy="23.5" r="0.7"/>
	<path class="st0" d="M31.8,27.5c0.1-0.4-0.2-0.8-0.6-0.8c-0.4-0.1-0.8,0.2-0.8,0.6c-0.2,1.4-1.4,2.5-3.1,3c-1.8,0.6-4.4,0.4-6-1.3
		c-0.3-0.3-0.7-0.3-1,0c-0.3,0.3-0.3,0.7,0,1c0.9,1,2.1,1.7,3.6,1.9c0.5,0.1,1,0.2,1.5,0.2c0.8,0,1.6-0.1,2.4-0.4
		C30,31,31.5,29.5,31.8,27.5z"/>
	<path class="st0" d="M41.4,20.2c-1.3-1.6-3.2-2.6-5.4-3c2.1-1.4,4-2.9,5.3-4.1c2-1.9,2.7-3.2,2.1-4.2c-0.6-1.1-2.4-1.1-5.7,0
		c-2.7,0.9-6.1,2.5-9.6,4.5c-0.6,0.3-1.2,0.7-1.8,1.1c-0.4-1.2-0.1-2.6,0.8-3.8c0.7-0.9,0.9-2,0.4-3c-0.5-1-1.5-1.6-2.8-1.6h0
		c-4.5,0-8.9,1.8-12.4,5c-3.5,3.2-5.6,7.5-6,12c-0.5,5.5,1.3,10.6,4.9,14.6c3.6,3.9,8.6,6.1,13.9,6.1c2.8,0,5.5-0.5,7.9-1.5
		c2.2-0.9,4.2-2.3,5.8-4c1.5-1.6,2.7-3.4,3.6-5.4c0.8-1.9,1.3-3.9,1.3-5.8C43.8,24.4,43,22,41.4,20.2z M28.9,14.7
		c3.2-1.8,6.4-3.4,8.9-4.3c2.8-1,4-0.9,4.3-0.8c0,0.2-0.2,0.9-2.1,2.6c-1.6,1.4-3.8,3.1-6.4,4.7c-0.8,0.5-1.7,1-2.5,1.5
		c-1.2,0.7-2.4,1.3-3.5,1.9c-0.2-0.7-0.5-1.3-0.9-2c-0.3-0.6-0.8-1.2-1.2-1.7c0.3-0.2,0.6-0.4,1-0.6C27.2,15.7,28.1,15.2,28.9,14.7z
		 M20.7,23.3c-0.1-0.4-0.2-0.8-0.4-1.1c-0.2-0.3-0.4-0.6-0.7-0.9c1.1-1.1,2.7-2.4,4.6-3.7c0.4,0.5,0.8,1,1.2,1.6
		c0.3,0.6,0.6,1.2,0.8,1.9C24.2,22.1,22.2,22.8,20.7,23.3z M18.1,22c0.4,0.2,0.7,0.5,0.9,0.9c0.2,0.4,0.3,0.8,0.3,1.2
		c0,0.7-0.5,1.4-1.1,1.8c-0.7,0.4-3.1,0.5-5.1,0.4c0.9-1.7,2.1-3.8,2.8-4.2C16.7,21.7,17.5,21.7,18.1,22z M42.3,27.1
		c-0.1,7.3-6.7,15.3-17.1,15.3c-4.8,0-9.5-2.1-12.8-5.6c-3.4-3.7-5-8.4-4.5-13.5c0.7-8.6,8.3-15.7,16.9-15.7h0
		c0.7,0,1.2,0.3,1.5,0.7c0.2,0.4,0.1,1-0.2,1.4c-1.3,1.7-1.7,3.8-0.9,5.5c-0.4,0.3-0.8,0.5-1.2,0.8l0,0c-2.3,1.6-4.3,3.2-5.6,4.5
		c-1-0.3-2.1-0.2-3,0.3c-1.5,0.9-3.5,5-3.9,5.8c-0.1,0.2-0.1,0.5,0,0.7c0.1,0.2,0.3,0.3,0.6,0.4c0.4,0,1.6,0.1,2.9,0.1
		c1.6,0,3.3-0.1,4.2-0.6c0.9-0.5,1.5-1.4,1.8-2.4c1.8-0.5,4.2-1.4,6.7-2.6c1.4-0.7,2.9-1.5,4.4-2.3c0.7-0.4,1.5-0.9,2.2-1.3
		c0,0,0,0,0,0C40.2,18.7,42.3,23.1,42.3,27.1z"/>
	<path class="st0" d="M19.2,16.6c1.6,0,2.9-1.3,2.9-2.9s-1.3-2.9-2.9-2.9s-2.9,1.3-2.9,2.9S17.6,16.6,19.2,16.6z M19.2,12.2
		c0.8,0,1.5,0.7,1.5,1.5c0,0.8-0.7,1.5-1.5,1.5s-1.5-0.7-1.5-1.5C17.8,12.8,18.4,12.2,19.2,12.2z"/>
	<path class="st0" d="M15.6,30.5c-1.6,0-2.9,1.3-2.9,2.9s1.3,2.9,2.9,2.9s2.9-1.3,2.9-2.9S17.2,30.5,15.6,30.5z M15.6,34.9
		c-0.8,0-1.5-0.7-1.5-1.5c0-0.8,0.7-1.5,1.5-1.5s1.5,0.7,1.5,1.5C17,34.3,16.4,34.9,15.6,34.9z"/>
	<path class="st0" d="M22.9,34.9c-1.6,0-2.9,1.3-2.9,2.9c0,1.6,1.3,2.9,2.9,2.9s2.9-1.3,2.9-2.9C25.9,36.2,24.6,34.9,22.9,34.9z
		 M22.9,39.3c-0.8,0-1.5-0.7-1.5-1.5c0-0.8,0.7-1.5,1.5-1.5s1.5,0.7,1.5,1.5C24.4,38.7,23.7,39.3,22.9,39.3z"/>
	<path class="st0" d="M31.8,33.4c-1.6,0-2.9,1.3-2.9,2.9s1.3,2.9,2.9,2.9c1.6,0,2.9-1.3,2.9-2.9S33.4,33.4,31.8,33.4z M31.8,37.9
		c-0.8,0-1.5-0.7-1.5-1.5c0-0.8,0.7-1.5,1.5-1.5c0.8,0,1.5,0.7,1.5,1.5C33.3,37.2,32.6,37.9,31.8,37.9z"/>
	<path class="st0" d="M37.7,26.1c-1.6,0-2.9,1.3-2.9,2.9c0,1.6,1.3,2.9,2.9,2.9s2.9-1.3,2.9-2.9C40.6,27.4,39.3,26.1,37.7,26.1z
		 M37.7,30.5c-0.8,0-1.5-0.7-1.5-1.5c0-0.8,0.7-1.5,1.5-1.5c0.8,0,1.5,0.7,1.5,1.5C39.1,29.8,38.5,30.5,37.7,30.5z"/>
</g>
</svg>
