<?xml version="1.0" encoding="utf-8"?>
<!-- Generator: Adobe Illustrator 23.0.0, SVG Export Plug-In . SVG Version: 6.00 Build 0)  -->
<svg version="1.1" id="Layer_1" xmlns="http://www.w3.org/2000/svg" xmlns:xlink="http://www.w3.org/1999/xlink" x="0px" y="0px"
	 viewBox="0 0 50 50" style="enable-background:new 0 0 50 50;" xml:space="preserve">
<style type="text/css">
	.st0{fill:#D0B2D5;}
</style>
<g>
	<path class="st0" d="M39.28,22.15c-0.34-0.92-2.32-6.18-2.69-6.92c-0.48-0.96-0.98-1.44-2.39-1.44H16.36c-1.03,0-2,0-2.63,1.47
		c-0.47,1.09-2.18,6.04-2.48,6.91l-0.11,0.1c-1.23,1.07-2.51,2.18-2.51,3.9v4.68v0.72v4.98c0,1.3,1.06,2.36,2.36,2.36h2.54
		c1.3,0,2.36-1.06,2.36-2.36v-1.65h18.17v1.65c0,1.3,1.06,2.36,2.36,2.36H39c1.3,0,2.36-1.06,2.36-2.36v-4.59v-1.11v-5.39
		C41.36,23.81,40.32,22.95,39.28,22.15z M14.65,15.65c0.37-0.86,0.73-0.86,1.71-0.86h17.83c1.01,0,1.18,0.26,1.5,0.89
		c0.27,0.55,1.68,4.25,2.45,6.28h-2.52c-0.18-2.08-1.93-3.72-4.07-3.72s-3.89,1.64-4.08,3.72H12.39
		C12.93,20.4,14.27,16.56,14.65,15.65z M34.62,21.96h-6.15c0.18-1.53,1.48-2.72,3.08-2.72C33.14,19.23,34.44,20.43,34.62,21.96z
		 M9.64,26.16c0-1.26,1-2.13,2.16-3.14l0.07-0.06h26.82c1.07,0.83,1.67,1.39,1.67,2.5v5.39v1.11c0,1.3-0.71,1.94-2.18,1.94H11.69
		c-1.43,0-2.05-0.7-2.05-2.33v-0.72V26.16z M14.91,36.54c0,0.75-0.61,1.36-1.36,1.36H11c-0.75,0-1.36-0.61-1.36-1.36v-2.28
		c0.59,0.49,1.35,0.63,2.05,0.63h3.23V36.54z M39,37.91h-2.54c-0.75,0-1.36-0.61-1.36-1.36v-1.65h3.09c0.92,0,1.65-0.23,2.18-0.65
		v2.3C40.36,37.29,39.75,37.91,39,37.91z"/>
	<path class="st0" d="M21.77,28.08h6.45c0.28,0,0.5-0.22,0.5-0.5s-0.22-0.5-0.5-0.5h-6.45c-0.28,0-0.5,0.22-0.5,0.5
		S21.5,28.08,21.77,28.08z"/>
	<path class="st0" d="M21.77,30.34h6.45c0.28,0,0.5-0.22,0.5-0.5s-0.22-0.5-0.5-0.5h-6.45c-0.28,0-0.5,0.22-0.5,0.5
		S21.5,30.34,21.77,30.34z"/>
	<path class="st0" d="M13.87,31.05h2.43c1.01,0,1.83-0.82,1.83-1.83v-0.96c0-1.01-0.82-1.83-1.83-1.83h-2.43
		c-1.01,0-1.83,0.82-1.83,1.83v0.96C12.05,30.23,12.86,31.05,13.87,31.05z M13.05,28.27c0-0.46,0.37-0.83,0.83-0.83h2.43
		c0.46,0,0.83,0.37,0.83,0.83v0.96c0,0.46-0.37,0.83-0.83,0.83h-2.43c-0.46,0-0.83-0.37-0.83-0.83V28.27z"/>
	<path class="st0" d="M33.69,31.05h2.43c1.01,0,1.83-0.82,1.83-1.83v-0.96c0-1.01-0.82-1.83-1.83-1.83h-2.43
		c-1.01,0-1.83,0.82-1.83,1.83v0.96C31.87,30.23,32.69,31.05,33.69,31.05z M32.87,28.27c0-0.46,0.37-0.83,0.83-0.83h2.43
		c0.46,0,0.83,0.37,0.83,0.83v0.96c0,0.46-0.37,0.83-0.83,0.83h-2.43c-0.46,0-0.83-0.37-0.83-0.83V28.27z"/>
</g>
</svg>
