<?xml version="1.0" encoding="utf-8"?>
<!-- Generator: Adobe Illustrator 23.0.0, SVG Export Plug-In . SVG Version: 6.00 Build 0)  -->
<svg version="1.1" id="Layer_1" xmlns="http://www.w3.org/2000/svg" xmlns:xlink="http://www.w3.org/1999/xlink" x="0px" y="0px"
	 viewBox="0 0 50 50" style="enable-background:new 0 0 50 50;" xml:space="preserve">
<style type="text/css">
	.st0{fill:#D0B2D5;}
</style>
<g>
	<path class="st0" d="M16.7,39.7c0.3,0,0.6-0.3,0.6-0.6v-3.8c0-1.8-1.5-3.3-3.3-3.3c-1.8,0-3.3,1.5-3.3,3.3v3.8
		c0,0.3,0.3,0.6,0.6,0.6H16.7z M11.8,35.4c0-1.2,1-2.2,2.2-2.2c1.2,0,2.2,1,2.2,2.2v3.2h-4.4V35.4z"/>
	<path class="st0" d="M34.4,35.4v3.8c0,0.3,0.3,0.6,0.6,0.6h5.5c0.3,0,0.6-0.3,0.6-0.6v-3.8c0-1.8-1.5-3.3-3.3-3.3
		C35.9,32.1,34.4,33.6,34.4,35.4z M39.9,35.4v3.2h-4.4v-3.2c0-1.2,1-2.2,2.2-2.2C38.9,33.2,39.9,34.2,39.9,35.4z"/>
	<path class="st0" d="M44.7,20.9h-3.1c-0.3,0-0.6,0.3-0.6,0.6V24h-1.2v-9.4c0-0.3-0.3-0.6-0.6-0.6h-3c-0.3,0-0.6,0.3-0.6,0.6v2.5
		h-1.5v-2.5c0-0.3-0.3-0.6-0.6-0.6h-3.1c-0.3,0-0.6,0.3-0.6,0.6v2.5h-1.7v-2.5c0-0.3-0.3-0.6-0.6-0.6h-1.3v-2.3l4-2.1
		c0.2-0.1,0.3-0.3,0.3-0.5c0-0.2-0.1-0.4-0.3-0.5l-4.3-2.3c0,0,0,0,0,0l0,0c0,0,0,0,0,0c0,0,0,0-0.1,0c0,0,0,0,0,0c0,0,0,0-0.1,0
		c0,0,0,0,0,0c0,0,0,0-0.1,0c0,0,0,0,0,0c0,0,0,0-0.1,0c0,0,0,0,0,0c0,0,0,0,0,0c0,0,0,0,0,0c0,0,0,0,0,0c0,0,0,0-0.1,0c0,0,0,0,0,0
		c0,0,0,0-0.1,0c0,0,0,0,0,0c0,0,0,0-0.1,0c0,0,0,0,0,0c0,0,0,0,0,0c0,0,0,0,0,0c0,0,0,0,0,0c0,0,0,0,0,0c0,0,0,0,0,0c0,0,0,0,0,0
		c0,0,0,0,0,0c0,0,0,0,0,0c0,0,0,0,0,0c0,0,0,0,0,0.1c0,0,0,0,0,0c0,0,0,0,0,0.1c0,0,0,0,0,0c0,0,0,0,0,0.1c0,0,0,0,0,0
		c0,0,0,0,0,0.1V14h-1.2c-0.3,0-0.6,0.3-0.6,0.6v2.5h-1.7v-2.5c0-0.3-0.3-0.6-0.6-0.6h-3.1c-0.3,0-0.6,0.3-0.6,0.6v2.5h-1.5v-2.5
		c0-0.3-0.3-0.6-0.6-0.6h-3.1c-0.3,0-0.6,0.3-0.6,0.6V24h-1.2v-2.5c0-0.3-0.3-0.6-0.6-0.6H7c-0.3,0-0.6,0.3-0.6,0.6v5.4
		c0,0.1,0,0.2,0.1,0.3l1.6,2.8v1.6c0,0.3,0.3,0.6,0.6,0.6c0.3,0,0.6-0.3,0.6-0.6v-1.8c0-0.1,0-0.2-0.1-0.3l-1.6-2.8V22h1.9v2.5
		c0,0.3,0.3,0.6,0.6,0.6h2.4c0.3,0,0.6-0.3,0.6-0.6V22h1.9v2.5c0,0.3,0.3,0.6,0.6,0.6h2.4c0.3,0,0.6-0.3,0.6-0.6V22h1.9v4.7
		l-1.6,2.7c-0.1,0.1-0.1,0.2-0.1,0.3v14.1H9.2v-9.8c0-0.3-0.3-0.6-0.6-0.6c-0.3,0-0.6,0.3-0.6,0.6v10.3c0,0.3,0.3,0.6,0.6,0.6H25
		c0.3,0,0.6-0.3,0.6-0.6s-0.3-0.6-0.6-0.6h-1.8v-5.7c0-1.5,1.2-2.6,2.6-2.6c1.5,0,2.6,1.2,2.6,2.6v5.7h-0.8c-0.3,0-0.6,0.3-0.6,0.6
		s0.3,0.6,0.6,0.6H43c0.3,0,0.6-0.3,0.6-0.6V34.1c0-0.3-0.3-0.6-0.6-0.6s-0.6,0.3-0.6,0.6v9.8H33V29.7c0-0.1,0-0.2-0.1-0.3l-1.6-2.7
		V22h1.9v2.5c0,0.3,0.3,0.6,0.6,0.6h2.4c0.3,0,0.6-0.3,0.6-0.6V22h1.9v2.5c0,0.3,0.3,0.6,0.6,0.6h2.4c0.3,0,0.6-0.3,0.6-0.6V22h1.9
		v4.6l-1.6,2.8c-0.1,0.1-0.1,0.2-0.1,0.3v1.8c0,0.3,0.3,0.6,0.6,0.6c0.3,0,0.6-0.3,0.6-0.6v-1.6l1.6-2.8c0.1-0.1,0.1-0.2,0.1-0.3
		v-5.4C45.3,21.2,45,20.9,44.7,20.9z M26.4,10.4V7.7l2.5,1.3L26.4,10.4z M36.2,20.9c-0.3,0-0.6,0.3-0.6,0.6V24h-1.2v-2.5
		c0-0.3-0.3-0.6-0.6-0.6h-3.1c-0.3,0-0.6,0.3-0.6,0.6v5.4c0,0.1,0,0.2,0.1,0.3l1.6,2.7v14h-2.2v-5.7c0-2.1-1.7-3.8-3.8-3.8
		S22,36.1,22,38.2v5.7h-2.2v-14l1.6-2.7c0.1-0.1,0.1-0.2,0.1-0.3v-5.4c0-0.3-0.3-0.6-0.6-0.6h-3.1c-0.3,0-0.6,0.3-0.6,0.6V24h-1.2
		v-2.5c0-0.3-0.3-0.6-0.6-0.6H13v-5.7h1.9v2.5c0,0.3,0.3,0.6,0.6,0.6h2.7c0.3,0,0.6-0.3,0.6-0.6v-2.5h1.9v2.5c0,0.3,0.3,0.6,0.6,0.6
		h2.8c0.3,0,0.6-0.3,0.6-0.6v-2.5h2.5v2.5c0,0.3,0.3,0.6,0.6,0.6h2.8c0.3,0,0.6-0.3,0.6-0.6v-2.5H33v2.5c0,0.3,0.3,0.6,0.6,0.6h2.7
		c0.3,0,0.6-0.3,0.6-0.6v-2.5h1.8v5.7H36.2z"/>
</g>
</svg>
