<?xml version="1.0" encoding="utf-8"?>
<!-- Generator: Adobe Illustrator 23.0.0, SVG Export Plug-In . SVG Version: 6.00 Build 0)  -->
<svg version="1.1" id="Layer_1" xmlns="http://www.w3.org/2000/svg" xmlns:xlink="http://www.w3.org/1999/xlink" x="0px" y="0px"
	 viewBox="0 0 50 50" style="enable-background:new 0 0 50 50;" xml:space="preserve">
<style type="text/css">
	.st0{fill:#D0B2D5;}
</style>
<g>
	<path class="st0" d="M31.62,9.9c-0.23-0.07-0.48,0.04-0.58,0.26c-0.11,0.22-0.05,0.48,0.15,0.62c0.03,0.03,3.35,2.55,4.92,6.93
		c1.44,3.99,0.36,6.31,0.35,6.33c-0.12,0.25-0.02,0.55,0.23,0.67c0.25,0.12,0.55,0.02,0.67-0.23c0.05-0.11,1.29-2.69-0.31-7.11
		c-0.88-2.44-2.25-4.33-3.37-5.58c3.13,1.52,8.15,5.06,6.92,11.82c-0.55,3.03-1.93,5.23-4.08,6.52c-0.24,0.14-0.31,0.45-0.17,0.69
		c0.09,0.16,0.26,0.24,0.43,0.24c0.09,0,0.18-0.02,0.26-0.07c2.42-1.44,3.95-3.86,4.55-7.19C43.47,13.42,31.74,9.94,31.62,9.9z"/>
	<path class="st0" d="M26.2,30.8c-2.12-0.59-3.55-1.36-4.18-1.88c-0.89-0.74-1.72-0.74-2.45,0.01c-0.49,0.5-1.04,1.16-1.33,1.51
		l-1.35-1.13c0.61-0.75,2.02-2.46,2.54-3.08c0.44-0.52,0.71-0.55,1.22-0.12c0.29,0.24,0.9,0.67,1.77,1.14
		c0.24,0.13,0.55,0.04,0.68-0.2c0.13-0.24,0.04-0.55-0.2-0.68c-0.81-0.44-1.37-0.83-1.61-1.03c-0.93-0.78-1.84-0.7-2.63,0.24
		c-0.52,0.62-1.92,2.33-2.54,3.09l-0.07-0.06c-0.19-0.16-0.44-0.24-0.69-0.22c-0.25,0.02-0.48,0.14-0.64,0.34l-6.29,7.54
		c-0.16,0.19-0.24,0.44-0.22,0.69c0.02,0.25,0.14,0.48,0.34,0.64l2.88,2.4c0,0,0,0,0,0c0.18,0.15,0.39,0.22,0.6,0.22
		c0.27,0,0.54-0.12,0.73-0.34l6.29-7.54c0.16-0.19,0.24-0.44,0.22-0.69c-0.02-0.22-0.12-0.41-0.27-0.56
		c0.27-0.33,0.81-0.99,1.28-1.46c0.33-0.33,0.55-0.4,1.1,0.06c0.91,0.75,2.65,1.55,4.55,2.08c0.04,0.01,0.09,0.02,0.13,0.02
		c0.22,0,0.42-0.14,0.48-0.37C26.62,31.15,26.46,30.88,26.2,30.8z M12.03,39.2L9.2,36.91l6.21-7.53l2.87,2.33L12.03,39.2z"/>
	<path class="st0" d="M34.25,28.14c1.38-0.84,1.82-1.71,1.87-1.81c0.12-0.25,0.01-0.54-0.23-0.66c-0.24-0.12-0.54-0.02-0.67,0.23
		c0,0.01-0.36,0.71-1.49,1.39c-0.24,0.14-0.31,0.45-0.17,0.69c0.09,0.16,0.26,0.24,0.43,0.24C34.08,28.21,34.17,28.19,34.25,28.14z"
		/>
	<path class="st0" d="M22.96,17.67l2.83-2.58c0,0,0,0,0,0c0.55-0.5,0.59-1.37,0.09-1.92l-2.78-3.05c-0.25-0.27-0.58-0.43-0.94-0.44
		c-0.37-0.02-0.71,0.11-0.97,0.35l-7.1,6.24c-0.55,0.5-0.59,1.21-0.48,2.15l0.11,4.09c0.05,0.74,0.41,1.31,0.97,1.54
		c0.16,0.07,0.33,0.1,0.51,0.1c0.4,0,0.82-0.17,1.18-0.5l3.08-2.8L37,40.16c0.09,0.1,0.21,0.16,0.35,0.16c0.01,0,0.02,0,0.02,0
		c0.12,0,0.24-0.05,0.34-0.13l2.76-2.5c0.2-0.19,0.22-0.5,0.03-0.71L22.96,17.67z M15.72,22.9c-0.23,0.21-0.47,0.29-0.65,0.22
		c-0.19-0.08-0.32-0.33-0.34-0.66l-0.11-4.11c-0.11-1,0.02-1.21,0.15-1.33l7.1-6.24c0.07-0.06,0.15-0.09,0.24-0.09
		c0.01,0,0.01,0,0.02,0c0.1,0,0.18,0.05,0.25,0.12l2.78,3.05c0.13,0.15,0.12,0.37-0.02,0.51L15.72,22.9z M37.4,39.11L20.26,20.22
		l2.02-1.83l17.14,18.89L37.4,39.11z"/>
</g>
</svg>
