<?xml version="1.0" encoding="utf-8"?>
<!-- Generator: Adobe Illustrator 23.0.0, SVG Export Plug-In . SVG Version: 6.00 Build 0)  -->
<svg version="1.1" id="Layer_1" xmlns="http://www.w3.org/2000/svg" xmlns:xlink="http://www.w3.org/1999/xlink" x="0px" y="0px"
	 viewBox="0 0 50 50" style="enable-background:new 0 0 50 50;" xml:space="preserve">
<style type="text/css">
	.st0{fill:#D0B2D5;}
</style>
<g>
	<g>
		<g>
			<path class="st0" d="M15.3,43.8H5.8c-0.4,0-0.7,0.3-0.7,0.7c0,0.4,0.3,0.7,0.7,0.7h9.5c0.4,0,0.7-0.3,0.7-0.7
				C16,44.1,15.7,43.8,15.3,43.8z"/>
			<path class="st0" d="M13.2,42.4c4.5,0,8.1-3.7,8.1-8.1c0-2.2-0.9-4.3-2.5-5.9c-0.3-0.3-0.7-0.2-1,0c-0.3,0.3-0.2,0.7,0,1
				c1.4,1.3,2.1,3,2.1,4.9c0,3.7-3,6.8-6.8,6.8s-6.8-3-6.8-6.8c0-3.7,3-6.8,6.8-6.8c0.4,0,0.7-0.3,0.7-0.7c0-0.4-0.3-0.7-0.7-0.7
				c-4.5,0-8.1,3.7-8.1,8.1C5.1,38.8,8.8,42.4,13.2,42.4z"/>
			<path class="st0" d="M16.6,23.4H17L13.1,33c-0.7,0.1-1.2,0.7-1.2,1.3c0,0.7,0.6,1.4,1.4,1.4c0.7,0,1.4-0.6,1.4-1.4
				c0-0.3-0.1-0.6-0.3-0.8l3.8-9.3l4.3,6.2c0.2,0.3,0.6,0.4,0.9,0.2c0.3-0.2,0.4-0.6,0.2-0.9l-4.3-6.2h1.4c1.1,0,2-0.9,2-2
				c0-1.1-0.9-2-2-2h-4.1c-0.4,0-0.7,0.3-0.7,0.7v2.7C16,23.1,16.3,23.4,16.6,23.4z M17.3,20.7h3.4c0.4,0,0.7,0.3,0.7,0.7
				c0,0.4-0.3,0.7-0.7,0.7h-3.4V20.7z"/>
			<path class="st0" d="M37,26.8c0,0.4,0.3,0.7,0.7,0.7c3.7,0,6.8,3,6.8,6.8c0,3.7-3,6.8-6.8,6.8s-6.8-3-6.8-6.8
				c0-2,0.9-3.9,2.5-5.2c0.3-0.2,0.3-0.7,0.1-1c-0.2-0.3-0.7-0.3-1-0.1c-1.9,1.6-3,3.8-3,6.3c0,4.5,3.7,8.1,8.1,8.1s8.1-3.7,8.1-8.1
				c0-4.5-3.7-8.1-8.1-8.1C37.3,26.2,37,26.5,37,26.8z"/>
			<path class="st0" d="M26.1,43.8h-6.8c-0.4,0-0.7,0.3-0.7,0.7c0,0.4,0.3,0.7,0.7,0.7h6.8c0.4,0,0.7-0.3,0.7-0.7
				C26.8,44.1,26.5,43.8,26.1,43.8z"/>
			<path class="st0" d="M26.1,31v-2.1c0.4,0,0.7-0.3,0.7-0.7c0-0.4-0.3-0.7-0.7-0.7h-1.4c-0.4,0-0.7,0.3-0.7,0.7
				c0,0.4,0.3,0.7,0.7,0.7V31c-1.2,0.3-2,1.4-2,2.6c0,1.3,0.9,2.3,2,2.6v2.1c-0.4,0-0.7,0.3-0.7,0.7c0,0.4,0.3,0.7,0.7,0.7h1.4
				c0.4,0,0.7-0.3,0.7-0.7c0-0.4-0.3-0.7-0.7-0.7v-2.1c1.2-0.3,2-1.4,2-2.6C28.2,32.4,27.3,31.3,26.1,31z M25.5,35
				c-0.7,0-1.4-0.6-1.4-1.4c0-0.7,0.6-1.4,1.4-1.4c0.7,0,1.4,0.6,1.4,1.4S26.2,35,25.5,35z"/>
			<path class="st0" d="M36.6,33.4c-0.2,0.2-0.3,0.5-0.3,0.9c0,0.7,0.6,1.4,1.4,1.4c0.7,0,1.4-0.6,1.4-1.4c0-0.7-0.5-1.2-1.1-1.3
				l-3.1-8.2h4.8c0.8,0,1.3-0.6,1.4-1.2l0.7-3.4c0-0.2,0-0.4-0.1-0.6c-0.1-0.2-0.3-0.2-0.5-0.2h-6.1c-0.4,0-0.7,0.3-0.7,0.7
				c0,0.4,0.3,0.7,0.7,0.7h5.3l-0.5,2.6c0,0,0,0.1,0,0.1h-5.4l-2.1-5.7c0,0,0,0,0,0c0,0,0,0,0,0l-1.4-3.4c-0.1-0.3-0.5-0.5-0.9-0.4
				c-0.3,0.1-0.5,0.5-0.4,0.9l1.2,3.1l-2.6,4.5c-0.2,0.3-0.1,0.7,0.3,0.9c0.1,0.1,0.2,0.1,0.3,0.1c0.2,0,0.5-0.1,0.6-0.3l2-3.5
				l1.6,4.4l-5.2,5.8c-0.2,0.3-0.2,0.7,0.1,1c0.1,0.1,0.3,0.2,0.5,0.2c0.2,0,0.4-0.1,0.5-0.2l4.7-5.3L36.6,33.4z"/>
			<path class="st0" d="M45.1,43.8H34.3c-0.4,0-0.7,0.3-0.7,0.7c0,0.4,0.3,0.7,0.7,0.7h10.9c0.4,0,0.7-0.3,0.7-0.7
				C45.8,44.1,45.5,43.8,45.1,43.8z"/>
			<path class="st0" d="M31.6,43.8h-1.4c-0.4,0-0.7,0.3-0.7,0.7c0,0.4,0.3,0.7,0.7,0.7h1.4c0.4,0,0.7-0.3,0.7-0.7
				C32.2,44.1,31.9,43.8,31.6,43.8z"/>
		</g>
	</g>
</g>
<g>
	<path class="st0" d="M21.9,11.8h-1.7c-0.9,0-1.6-0.7-1.6-1.6c0-0.9,0.7-1.6,1.6-1.6h1.7c0.3,0,0.5-0.2,0.5-0.5s-0.2-0.5-0.5-0.5
		h-1.7c-1.2,0-2.2,0.8-2.5,1.9h-7.6c-3.4,0-6.2,2.8-6.2,6.2S6.7,22,10.1,22h4.2c0.3,0,0.6-0.3,0.6-0.6s-0.3-0.6-0.6-0.6h-4.2
		c-2.7,0-5-2.2-5-5s2.2-5,5-5h7.6c0.3,1.1,1.3,1.9,2.5,1.9h1.7c0.3,0,0.5-0.2,0.5-0.5S22.2,11.8,21.9,11.8z"/>
	<path class="st0" d="M22.9,9.8h0.7c0.3,0,0.5-0.2,0.5-0.5s-0.2-0.5-0.5-0.5h-0.7c-0.3,0-0.5,0.2-0.5,0.5S22.6,9.8,22.9,9.8z"/>
	<path class="st0" d="M23.6,10.6h-0.7c-0.3,0-0.5,0.2-0.5,0.5s0.2,0.5,0.5,0.5h0.7c0.3,0,0.5-0.2,0.5-0.5S23.9,10.6,23.6,10.6z"/>
</g>
</svg>
