<?xml version="1.0" encoding="utf-8"?>
<!-- Generator: Adobe Illustrator 23.0.0, SVG Export Plug-In . SVG Version: 6.00 Build 0)  -->
<svg version="1.1" id="Layer_1" xmlns="http://www.w3.org/2000/svg" xmlns:xlink="http://www.w3.org/1999/xlink" x="0px" y="0px"
	 viewBox="0 0 50 50" style="enable-background:new 0 0 50 50;" xml:space="preserve">
<style type="text/css">
	.st0{fill:#D0B2D5;}
</style>
<g>
	<path class="st0" d="M31.06,38.72H11.78c-3.35,0-6.08-2.73-6.08-6.08c0-2.36,1.39-4.52,3.5-5.51c0-0.09,0-0.18,0-0.27
		c0-4.51,3.67-8.18,8.18-8.18c2.61,0,5.09,1.27,6.61,3.37c1.01-0.7,2.21-1.07,3.44-1.07c3.35,0,6.08,2.73,6.08,6.08
		c0,0.01,0,0.01,0,0.02c2.18,0.97,3.62,3.14,3.62,5.56C37.13,36,34.41,38.72,31.06,38.72z M17.38,20.01c-3.78,0-6.86,3.08-6.86,6.86
		c0,0.22,0.01,0.43,0.03,0.64l0.05,0.51l-0.48,0.18c-1.86,0.69-3.1,2.48-3.1,4.46c0,2.62,2.13,4.76,4.76,4.76h19.28
		c2.62,0,4.76-2.13,4.76-4.76c0-2.02-1.28-3.83-3.2-4.49l-0.48-0.17l0.04-0.51c0.01-0.13,0.02-0.27,0.02-0.41
		c0-2.62-2.13-4.76-4.76-4.76c-1.17,0-2.29,0.43-3.16,1.21l-0.6,0.53l-0.41-0.69C22.04,21.29,19.78,20.01,17.38,20.01z"/>
	<g>
		<path class="st0" d="M38.43,30.4c0.63-0.68,1.2-1.37,1.7-2.05c0.21-0.28,0.15-0.68-0.14-0.89c-0.28-0.21-0.68-0.15-0.89,0.14
			c-0.64,0.87-1.4,1.75-2.25,2.61c-0.1,0.06-0.18,0.13-0.23,0.23c-0.16,0.16-0.31,0.3-0.45,0.43c0.16,0.46,0.25,0.96,0.28,1.47
			c0.27-0.24,0.6-0.53,0.96-0.88c1.4,0.3,2.05,0.83,2.05,1.1c0,0.18-0.32,0.51-1.01,0.79c-0.58,0.24-1.31,0.39-2.1,0.47
			c-0.1,0.46-0.26,0.91-0.48,1.32c2.5-0.12,4.86-1,4.86-2.58C40.73,31.64,39.9,30.86,38.43,30.4z"/>
		<path class="st0" d="M40.67,15.82c-1.44-1.44-3.35-2.23-5.38-2.23c-4.2,0-7.62,3.42-7.62,7.62c0,0.15,0.02,0.31,0.03,0.46
			c0.44,0.02,0.87,0.09,1.28,0.21c-0.02-0.22-0.03-0.45-0.03-0.67c0-3.5,2.84-6.34,6.34-6.34s6.34,2.84,6.34,6.34
			c0,1.54-0.53,3.2-1.57,4.95c-0.18,0.3-0.08,0.7,0.22,0.87c0.15,0.09,0.32,0.11,0.48,0.07c0.17-0.04,0.3-0.15,0.39-0.29
			c1.16-1.95,1.75-3.83,1.75-5.6C42.91,19.17,42.11,17.26,40.67,15.82z"/>
	</g>
	<path class="st0" d="M32.79,19.82L32.79,19.82c-0.34-0.1-0.69,0.1-0.79,0.44c-0.09,0.31-0.13,0.62-0.13,0.94
		c0,1.89,1.53,3.42,3.42,3.42c1.89,0,3.42-1.54,3.42-3.42c0-1.89-1.54-3.42-3.42-3.42c-0.74,0-1.45,0.24-2.05,0.68
		c-0.14,0.1-0.23,0.25-0.25,0.42c-0.02,0.17,0.02,0.34,0.12,0.47c0.1,0.14,0.25,0.23,0.42,0.25c0.17,0.02,0.34-0.02,0.47-0.12
		c0.37-0.28,0.82-0.43,1.28-0.43c1.18,0,2.15,0.96,2.15,2.15c0,1.18-0.96,2.15-2.15,2.15c-1.18,0-2.15-0.96-2.15-2.15
		c0-0.2,0.03-0.4,0.08-0.59C33.32,20.27,33.13,19.92,32.79,19.82z"/>
</g>
</svg>
