<?xml version="1.0" encoding="utf-8"?>
<!-- Generator: Adobe Illustrator 23.0.0, SVG Export Plug-In . SVG Version: 6.00 Build 0)  -->
<svg version="1.1" id="Layer_1" xmlns="http://www.w3.org/2000/svg" xmlns:xlink="http://www.w3.org/1999/xlink" x="0px" y="0px"
	 viewBox="0 0 50 50" style="enable-background:new 0 0 50 50;" xml:space="preserve">
<style type="text/css">
	.st0{fill:#D0B2D5;}
</style>
<g>
	<g>
		<g>
			<path class="st0" d="M19.6,26.6c-0.4,0-0.7,0.3-0.7,0.7c0,0.4,0.3,0.7,0.7,0.7c0.4,0,0.7-0.3,0.7-0.7
				C20.3,26.9,20,26.6,19.6,26.6z"/>
		</g>
	</g>
	<g>
		<g>
			<path class="st0" d="M17.4,44.1c-0.4,0-0.7,0.3-0.7,0.7c0,0.4,0.3,0.7,0.7,0.7c0.4,0,0.7-0.3,0.7-0.7S17.8,44.1,17.4,44.1z"/>
		</g>
	</g>
	<g>
		<g>
			<path class="st0" d="M29.4,18.4c-0.3-0.3-0.7-0.3-1,0l-7.1,6.5c-0.3,0.3-0.3,0.7,0,1c0.1,0.2,0.3,0.2,0.5,0.2
				c0.2,0,0.3-0.1,0.5-0.2l7.1-6.5C29.7,19.2,29.7,18.7,29.4,18.4z"/>
		</g>
	</g>
	<g>
		<g>
			<path class="st0" d="M41.1,16.7L35.5,11c-0.8-0.8-2.1-0.8-2.9-0.1l-2.8,2.5c-0.1,0-0.1,0.1-0.1,0.1c0,0,0,0.1-0.1,0.1L14.4,27.2
				c-0.2,0.2-0.4,0.4-0.5,0.6c0,0,0,0,0,0c0,0,0,0,0,0c0,0,0,0,0,0c0,0,0,0,0,0c-0.1,0.2-0.2,0.4-0.2,0.6l-0.6,4.6L11.3,35
				c-0.4,0.4-0.6,0.9-0.6,1.5c0,0.3,0.1,0.6,0.2,0.9l-4.2,4.1c-0.2,0.2-0.3,0.5-0.2,0.8c0.1,0.3,0.4,0.4,0.7,0.4h6
				c0.2,0,0.4-0.1,0.5-0.2l1.1-1.1c0.3,0.1,0.6,0.2,0.9,0.2c0.5,0,1.1-0.2,1.5-0.6l1.8-1.8l4.6-0.6c0.2,0,0.4-0.1,0.6-0.2
				c0,0,0,0,0,0c0,0,0,0,0,0c0,0,0,0,0,0c0,0,0,0,0,0c0.2-0.1,0.4-0.3,0.6-0.5l13.5-15.3l2.6-2.9C42,18.8,41.9,17.5,41.1,16.7z
				 M13,41.3h-4l2.9-2.8l2,2L13,41.3z M18.7,37.8C18.7,37.8,18.7,37.8,18.7,37.8C18.7,37.8,18.7,37.8,18.7,37.8
				C18.7,37.8,18.7,37.8,18.7,37.8c-0.1,0-0.1,0-0.1,0c0,0,0,0,0,0c0,0,0,0,0,0c0,0,0,0,0,0c0,0,0,0,0,0c0,0,0,0,0,0c0,0,0,0,0,0
				c0,0,0,0,0,0c0,0,0,0,0,0c0,0,0,0,0,0c0,0,0,0,0,0l-2,2c-0.3,0.3-0.7,0.3-1,0l-3-3c-0.3-0.3-0.3-0.7,0-1l2-2c0,0,0,0,0,0
				c0,0,0,0,0,0c0,0,0,0,0,0c0,0,0,0,0,0c0,0,0,0,0,0c0,0,0,0,0,0c0,0,0,0,0,0c0,0,0,0,0,0c0,0,0,0,0,0c0,0,0,0,0,0c0,0,0,0,0,0
				c0,0,0,0,0,0c0,0,0,0,0,0c0,0,0,0,0,0l0.5-3.9l7.7,7.7L18.7,37.8z M24.2,36.8l-8.7-8.7l14.6-13l7.1,7.1L24.2,36.8z M40.1,18.7
				C40.1,18.7,40.1,18.7,40.1,18.7l-2.1,2.4l-6.9-6.9l2.3-2.1c0,0,0,0,0,0c0.3-0.3,0.7-0.3,1,0l5.7,5.7C40.4,18,40.4,18.4,40.1,18.7
				z"/>
		</g>
	</g>
	<g>
		<g>
			<path class="st0" d="M42.1,44.1H20.2c-0.4,0-0.7,0.3-0.7,0.7c0,0.4,0.3,0.7,0.7,0.7h21.9c0.4,0,0.7-0.3,0.7-0.7
				C42.8,44.4,42.5,44.1,42.1,44.1z"/>
		</g>
	</g>
	<g>
		<g>
			<path class="st0" d="M14.5,44.1H7.2c-0.4,0-0.7,0.3-0.7,0.7c0,0.4,0.3,0.7,0.7,0.7h7.3c0.4,0,0.7-0.3,0.7-0.7
				C15.2,44.4,14.9,44.1,14.5,44.1z"/>
		</g>
	</g>
</g>
</svg>
