<?xml version="1.0" encoding="utf-8"?>
<!-- Generator: Adobe Illustrator 21.1.0, SVG Export Plug-In . SVG Version: 6.00 Build 0)  -->
<svg version="1.1" id="Layer_1" xmlns="http://www.w3.org/2000/svg" xmlns:xlink="http://www.w3.org/1999/xlink" x="0px" y="0px"
	 viewBox="0 0 100 100" style="enable-background:new 0 0 100 100;" xml:space="preserve">
<style type="text/css">
	.st0{fill:#D0B3D5;}
</style>
<g>
	<g>
		<path class="st0" d="M96.7,94.2l-9.9-12.9c-0.3-0.4-0.8-0.7-1.3-0.7c-6.7-0.7-10.3-2.1-13.2-3.3c-2.6-1-5.2-2.1-8.6-2.1
			c-5.2,0-9.2,2.8-11.9,5.9V81c1.5-3.5,5.5-8.9,11.7-8.9c2.7,0,4.8,0.8,7.2,1.8c2,0.8,4.5,1.8,8.2,2.6c1,0.2,2-0.4,2.2-1.4
			s-0.4-2-1.4-2.2c-3.3-0.7-5.6-1.6-7.6-2.4c-2.5-1-5.2-2.1-8.5-2.1c-6.5,0-11,4.3-13.5,8.3c-2.5-3.9-7.1-8.3-13.5-8.3
			c-3.4,0-6,1-8.5,2.1c-2.9,1.1-6.4,2.6-13.1,3.2c-1,0.1-1.8,1-1.6,2s1,1.8,2,1.7c7.2-0.7,11.2-2.3,14.1-3.4c2.4-1,4.5-1.8,7.2-1.8
			c6.2,0,10.2,5.5,11.7,8.9v0.1c-2.7-3.1-6.7-5.9-11.9-5.9c-3.4,0-6,1.1-8.6,2.1c-2.9,1.2-6.5,2.6-13.2,3.3c-0.5,0.1-1,0.3-1.3,0.7
			L3.3,94.2c-0.4,0.6-0.5,1.3-0.2,1.9c0.3,0.6,0.9,1,1.7,1h90.5c0.7,0,1.3-0.4,1.7-1C97.2,95.5,97.2,94.7,96.7,94.2L96.7,94.2z
			 M63.7,78.9c2.7,0,4.8,0.8,7.2,1.8c2.8,1.1,6.7,2.7,13.4,3.4l7.2,9.3c-12.3-0.3-18.1-2.6-22.1-4.2c-2.3-0.9-3.8-1.5-5.7-1.5
			c-3.4,0-5.7,2.6-6.7,4.8c0,0,0,0,0,0.1l-0.4,0.9h-4.7v-5.5C53.4,84.4,57.4,78.9,63.7,78.9L63.7,78.9z M15.6,84.1
			c6.8-0.8,10.6-2.3,13.4-3.4c2.4-1,4.5-1.8,7.3-1.8c6.3,0,10.3,5.5,11.9,9v5.5h-4.7L43,92.5c0,0,0,0,0-0.1c-1-2.2-3.3-4.8-6.7-4.8
			c-1.9,0-3.5,0.6-5.7,1.5c-3.9,1.6-9.8,3.9-22.1,4.2L15.6,84.1z M31.9,92.7c2-0.8,3.1-1.3,4.4-1.3c1.6,0,2.6,1.3,3,2H30
			C30.7,93.2,31.3,92.9,31.9,92.7L31.9,92.7z M60.7,93.4c0.5-0.8,1.5-2,3-2c1.2,0,2.3,0.4,4.4,1.3c0.6,0.2,1.3,0.5,1.9,0.8H60.7z"/>
		<path class="st0" d="M84.7,77.4L84.7,77.4c0.1,0,0.2,0,0.3,0c0.9,0,1.7-0.7,1.8-1.7c0.1-1-0.6-1.9-1.7-2l-0.1,0
			c-1-0.1-1.9,0.6-2,1.7S83.7,77.3,84.7,77.4L84.7,77.4z"/>
		<path class="st0" d="M43.8,48.2c-0.5,0-0.9,0.3-1.2,0.6c-0.3,0.4-0.5,1-0.4,1.5c0.8,5,3.4,8.4,7.3,9.5c-0.1,0.7-0.2,1.4-0.2,2.1
			l-1,9.3c-0.1,1,0.6,1.9,1.6,2c0.1,0,0.1,0,0.2,0c0.9,0,1.7-0.7,1.8-1.7l1-9.3c0.1-0.7,0.2-1.4,0.2-2c8.6-0.1,13.8-5.6,16.4-17.1
			c0.3-1.3,0.6-2.8,1.1-4.4c0.1-0.5,0-1.1-0.3-1.5c-0.1-0.2-0.3-0.3-0.4-0.4l0.7-0.4c0.4-0.3,0.8-0.7,0.9-1.2
			c3.2-12.8,7.9-29.8,8-30c0.2-0.6,0-1.2-0.3-1.7c-0.4-0.5-0.9-0.7-1.5-0.7C76.8,2.9,62,4,49.9,23.8c-0.2,0.3-0.3,0.5-0.4,0.7
			c-0.2,0.4-0.3,0.8-0.2,1.2l0.9,5.7H47c-0.7,0-1.4,0.4-1.7,1.1c-2,4.6-3.1,9-3.4,12.9c0,0.5,0.2,1,0.5,1.4L43.8,48.2z M68,33.5
			l-4.9,2.8c-0.7,0.4-1.1,1.2-0.9,2s0.9,1.4,1.7,1.4l2.6,0.2c-0.2,0.8-0.4,1.7-0.6,2.4c-2.7,11.7-7.6,14-12.3,14.2
			c2.7-16.3,9.5-31.4,20-44.2C72,18.3,69.8,26.5,68,33.5L68,33.5z M48.2,35.1h4.1c0.5,0,1-0.2,1.4-0.7c0.3-0.4,0.5-1,0.4-1.5
			L53,25.8c0,0,0-0.1,0.1-0.1c5.8-9.4,12.2-14.1,16.5-16.4c1-0.5,2-1,2.9-1.3C66.1,15.3,60.9,23.5,57,32.4
			c-3.3,7.6-5.7,15.5-7.1,23.7c-2-0.8-3.1-2.6-3.7-4.3h1.9c0.7,0,1.4-0.4,1.7-1.1c0.3-0.7,0.1-1.5-0.4-2l-3.8-3.9
			C46,41.9,46.8,38.6,48.2,35.1L48.2,35.1z"/>
	</g>
</g>
</svg>
