<?xml version="1.0" encoding="utf-8"?>
<!-- Generator: Adobe Illustrator 23.0.0, SVG Export Plug-In . SVG Version: 6.00 Build 0)  -->
<svg version="1.1" id="Layer_1" xmlns="http://www.w3.org/2000/svg" xmlns:xlink="http://www.w3.org/1999/xlink" x="0px" y="0px"
	 viewBox="0 0 50 50" style="enable-background:new 0 0 50 50;" xml:space="preserve">
<style type="text/css">
	.st0{fill:#D0B2D5;}
</style>
<g>
	<path class="st0" d="M22.2,23.61l0.87,0.95l-0.6,0.11c-0.27,0.05-0.45,0.31-0.4,0.58c0.02,0.12,0.54,2.88,2.95,3.62
		c-0.39,2.72-0.47,4.67-0.47,4.85c-0.01,0.28,0.21,0.51,0.48,0.52c0.01,0,0.01,0,0.02,0c0.27,0,0.49-0.21,0.5-0.48
		c0-0.04,0.08-1.99,0.47-4.72c0.16,0.01,0.32,0.05,0.47,0.05c1.03,0,2-0.3,2.85-0.88c1.86-1.28,3.16-3.89,3.84-7.75
		c0.02-0.14-0.01-0.28-0.1-0.39c-0.08-0.11-0.21-0.18-0.35-0.19l-0.5-0.04l1.01-0.68c0.11-0.07,0.18-0.18,0.21-0.3
		c0.01-0.03,0.76-3.23,1.64-6.47c0.89-3.27,1.37-5.45,1.38-5.47c0-0.02,0-0.03,0-0.05c0.01-0.05,0.01-0.11,0-0.16
		c0-0.02-0.01-0.05-0.02-0.07c-0.02-0.05-0.04-0.09-0.07-0.13c-0.01-0.01-0.01-0.03-0.02-0.04c-0.01-0.01-0.02-0.01-0.02-0.02
		c-0.01-0.01-0.01-0.02-0.02-0.03c-0.04-0.03-0.08-0.05-0.12-0.07c-0.01-0.01-0.03-0.02-0.04-0.02c-0.07-0.02-0.14-0.03-0.22-0.02
		c0,0-0.01,0-0.01,0c-0.15,0.02-3.72,0.58-7.15,3.65c-3.38,3.03-3.85,4.63-3.89,4.8c-0.02,0.07-0.02,0.13-0.01,0.2l0.46,2.79
		l-1.5-0.03c-0.19,0-0.3,0.07-0.4,0.19c-0.06,0.07-0.59,0.77-1.06,2.66c-0.4,1.61-0.29,2.73-0.29,2.78
		C22.08,23.43,22.12,23.53,22.2,23.61z M32.51,18.41l-2.03,1.36c-0.18,0.12-0.26,0.33-0.21,0.54c0.05,0.21,0.23,0.35,0.44,0.37
		l1.37,0.12c-0.66,3.29-1.77,5.5-3.32,6.56c-0.78,0.53-1.66,0.75-2.6,0.68c0.5-3.08,1.4-6.9,3.01-10.15
		c1.69-3.42,4.22-6.96,5.79-9.02c-0.22,0.87-0.5,1.96-0.84,3.22C33.36,14.9,32.69,17.67,32.51,18.41z M23.33,20.78
		c0.28-1.15,0.58-1.79,0.75-2.08l1.82,0.04c0.17,0,0.29-0.06,0.39-0.17c0.1-0.11,0.14-0.26,0.12-0.41l-0.54-3.26
		c0.14-0.35,0.83-1.78,3.56-4.22c1.94-1.73,3.94-2.61,5.23-3.04c-1.5,1.93-4.46,5.94-6.38,9.81c-1.67,3.37-2.59,7.27-3.1,10.4
		c-1.22-0.45-1.77-1.63-1.99-2.31l0.96-0.18c0.18-0.03,0.33-0.16,0.38-0.33c0.06-0.17,0.02-0.36-0.11-0.5l-1.35-1.48
		C23.04,22.73,23.05,21.88,23.33,20.78z"/>
	<path class="st0" d="M43.52,43.44c0.03-0.06,0.05-0.14,0.05-0.21c0-0.01-0.01-0.02-0.01-0.03c0-0.02-0.01-0.04-0.01-0.06
		c-0.01-0.07-0.04-0.13-0.07-0.18c-0.01-0.01-0.01-0.02-0.01-0.03l-3.86-5.11c-0.09-0.13-0.24-0.2-0.4-0.2
		c-1.99,0-3.19-0.47-4.46-0.98c-1.26-0.5-2.56-1.01-4.6-1.01c-1.9,0-3.61,1.45-4.61,2.52v-0.86c0.34-0.59,2.23-3.64,4.64-3.64
		c1.62,0,3.02,0.64,4.25,1.2c0.95,0.43,1.77,0.81,2.54,0.81c0.28,0,0.5-0.22,0.5-0.5s-0.22-0.5-0.5-0.5c-0.55,0-1.28-0.33-2.12-0.72
		c-1.26-0.57-2.82-1.29-4.66-1.29c-2.38,0-4.21,2.2-5.06,3.45c-1.02-1.53-3.7-3.45-5.5-3.45c-1.05,0-2.43,0.5-3.9,1.02
		c-1.59,0.57-3.4,1.22-4.85,1.22c-0.28,0-0.5,0.22-0.5,0.5s0.22,0.5,0.5,0.5c1.62,0,3.51-0.68,5.18-1.28
		c1.38-0.49,2.68-0.96,3.56-0.96c1.98,0,4.92,2.81,4.92,3.51v0.73c-0.89-1.04-2.46-2.27-4.91-2.27c-1.94,0-3.05,0.5-4.13,0.97
		c-1.16,0.52-2.36,1.05-4.81,1.05c-0.16,0-0.31,0.08-0.4,0.2l-3.77,5.08c-0.01,0.01-0.01,0.02-0.01,0.03
		c-0.03,0.05-0.06,0.11-0.07,0.18c0,0.02-0.01,0.04-0.01,0.06c0,0.01-0.01,0.02-0.01,0.03c0,0.08,0.02,0.15,0.05,0.21
		c0,0,0,0.01,0,0.01c0.01,0.01,0.02,0.02,0.02,0.03c0.04,0.06,0.08,0.11,0.14,0.15c0.02,0.01,0.03,0.02,0.05,0.04
		c0.07,0.04,0.15,0.07,0.24,0.07h36.14c0.09,0,0.16-0.03,0.24-0.07c0.02-0.01,0.03-0.02,0.05-0.03c0.06-0.04,0.1-0.09,0.14-0.15
		c0.01-0.01,0.02-0.01,0.02-0.02C43.52,43.44,43.52,43.44,43.52,43.44z M30.15,36.63c1.85,0,3.01,0.46,4.23,0.94
		c1.25,0.49,2.54,1,4.58,1.04l3.1,4.1c-5.6-0.08-7.54-0.87-8.98-1.46c-0.83-0.34-1.54-0.63-2.66-0.63c-1.71,0-2.46,1.19-2.71,2.09
		h-2.17v-3.04C25.98,39.11,27.99,36.63,30.15,36.63z M10.95,38.65c2.49-0.04,3.8-0.62,4.96-1.14c1.07-0.48,1.99-0.89,3.72-0.89
		c3.22,0,4.65,2.51,4.91,3.02v3.09h-2.25c-0.24-0.9-1-2.09-2.7-2.09c-1.12,0-1.84,0.29-2.67,0.63c-1.44,0.58-3.38,1.37-8.99,1.46
		L10.95,38.65z M17.29,42.19c0.79-0.32,1.36-0.55,2.29-0.55c1.02,0,1.46,0.61,1.65,1.09h-5.38C16.42,42.54,16.88,42.36,17.29,42.19z
		 M28.76,42.73c0.19-0.48,0.64-1.09,1.65-1.09c0.92,0,1.5,0.23,2.29,0.55c0.42,0.17,0.88,0.36,1.44,0.54H28.76z"/>
</g>
</svg>
