<?xml version="1.0" encoding="utf-8"?>
<!-- Generator: Adobe Illustrator 23.0.0, SVG Export Plug-In . SVG Version: 6.00 Build 0)  -->
<svg version="1.1" id="Layer_1" xmlns="http://www.w3.org/2000/svg" xmlns:xlink="http://www.w3.org/1999/xlink" x="0px" y="0px"
	 viewBox="0 0 50 50" style="enable-background:new 0 0 50 50;" xml:space="preserve">
<style type="text/css">
	.st0{fill:#D0B2D5;}
</style>
<g>
	<path class="st0" d="M45.4,17.4l-5.1-5.7V9.3c0-0.9-0.7-1.6-1.6-1.6H12.5c-0.9,0-1.6,0.7-1.6,1.6v2.2l-5.4,5.9
		c-0.1,0.1-0.2,0.3-0.2,0.5c0,2.6,2.1,4.7,4.7,4.7c1.6,0,3-0.8,3.9-2.1c0.8,1.3,2.3,2.1,3.9,2.1c1.6,0,3-0.8,3.9-2.1
		c0.8,1.3,2.3,2.1,3.9,2.1c1.6,0,3-0.8,3.9-2.1c0.8,1.3,2.3,2.1,3.9,2.1c1.6,0,3-0.8,3.9-2.1c0.8,1.3,2.3,2.1,3.9,2.1
		c2.6,0,4.7-2.1,4.7-4.7C45.6,17.7,45.6,17.5,45.4,17.4z M12.5,9.2h26.2c0,0,0.1,0,0.1,0.1V11H12.4L12.5,9.2
		C12.4,9.2,12.4,9.2,12.5,9.2z M41,21c-1.7,0-3.1-1.4-3.1-3.1c0-0.4-0.3-0.8-0.8-0.8c-0.4,0-0.8,0.3-0.8,0.8c0,1.7-1.4,3.1-3.1,3.1
		c-1.7,0-3.1-1.4-3.1-3.1c0-0.4-0.3-0.8-0.8-0.8c-0.4,0-0.8,0.3-0.8,0.8c0,1.7-1.4,3.1-3.1,3.1s-3.1-1.4-3.1-3.1
		c0-0.4-0.3-0.8-0.8-0.8c-0.4,0-0.8,0.3-0.8,0.8c0,1.7-1.4,3.1-3.1,3.1c-1.7,0-3.1-1.4-3.1-3.1c0-0.4-0.3-0.8-0.8-0.8
		c-0.4,0-0.8,0.3-0.8,0.8c0,1.7-1.4,3.1-3.1,3.1c-1.6,0-3-1.2-3.1-2.8l5.1-5.7h27l5.1,5.7C43.9,19.8,42.6,21,41,21z"/>
	<path class="st0" d="M40.5,25c-0.4,0-0.8,0.3-0.8,0.8V33H11.5v-7.2c0-0.4-0.3-0.8-0.8-0.8c-0.4,0-0.8,0.3-0.8,0.8v17.4
		c0,0.9,0.7,1.6,1.6,1.6h28c0.9,0,1.6-0.7,1.6-1.6V25.8C41.2,25.4,40.9,25,40.5,25z M39.6,43.3h-28c0,0-0.1,0-0.1-0.1v-8.7h28.2
		L39.6,43.3C39.7,43.3,39.6,43.3,39.6,43.3z"/>
</g>
</svg>
