<?xml version="1.0" encoding="utf-8"?>
<!-- Generator: Adobe Illustrator 23.0.0, SVG Export Plug-In . SVG Version: 6.00 Build 0)  -->
<svg version="1.1" id="Layer_1" xmlns="http://www.w3.org/2000/svg" xmlns:xlink="http://www.w3.org/1999/xlink" x="0px" y="0px"
	 viewBox="0 0 50 50" style="enable-background:new 0 0 50 50;" xml:space="preserve">
<style type="text/css">
	.st0{fill:#D0B2D5;}
</style>
<g>
	<g>
		<g>
			<path class="st0" d="M35.78,40.49c-0.12-0.12-0.28-0.19-0.45-0.19c-0.17,0-0.33,0.07-0.45,0.19c-0.12,0.12-0.19,0.28-0.19,0.45
				s0.07,0.33,0.19,0.45c0.12,0.12,0.28,0.19,0.45,0.19s0.33-0.07,0.45-0.19c0.12-0.12,0.19-0.28,0.19-0.45S35.9,40.61,35.78,40.49z
				"/>
		</g>
	</g>
	<g>
		<g>
			<path class="st0" d="M40.97,19.66c-0.38-0.56-0.96-0.93-1.63-1.05c-1.08-0.19-2.14,0.35-2.65,1.28v-6.72
				c0-1.36-1.11-2.47-2.47-2.47c-0.45,0-0.86,0.12-1.22,0.33c-0.2-1.17-1.21-2.06-2.43-2.06c-1.22,0-2.24,0.89-2.43,2.06
				c-0.36-0.21-0.78-0.33-1.22-0.33c-1.28,0-2.34,0.98-2.46,2.23c-0.36-0.2-0.77-0.31-1.2-0.31c-1.36,0-2.47,1.11-2.47,2.47
				c0,0.35,0.29,0.64,0.64,0.64c0.35,0,0.64-0.29,0.64-0.64c0-0.66,0.54-1.2,1.2-1.2c0.62,0,1.13,0.47,1.19,1.07v1.7
				c0,0.35,0.29,0.64,0.64,0.64s0.64-0.29,0.64-0.64v-3.49c0-0.66,0.54-1.2,1.2-1.2c0.62,0,1.13,0.47,1.19,1.07V18
				c0,0.03,0.01,0.24,0.01,0.24c0,0.35,0.29,0.64,0.64,0.64c0.35,0,0.64-0.29,0.64-0.64v-5.07c0-0.06,0-0.11-0.01-0.17v-1.56
				c0-0.66,0.54-1.2,1.2-1.2c0.66,0,1.2,0.54,1.2,1.2V13c0,0.06-0.01,0.11-0.01,0.17v8.96c0,0.35,0.29,0.64,0.64,0.64
				s0.64-0.29,0.64-0.64l0.01-9.08c0.06-0.6,0.57-1.07,1.19-1.07c0.66,0,1.2,0.54,1.2,1.2v9.42c0,0.47,0.34,0.84,0.8,0.9
				c0.46,0.06,0.88-0.23,0.99-0.68l0.5-2.02c0.15-0.63,0.78-1.04,1.42-0.92c0.33,0.06,0.62,0.24,0.8,0.52
				c0.19,0.28,0.26,0.61,0.19,0.94l-0.96,4.87c-0.32,1.63-1.12,3.12-2.29,4.29l-1.98,1.98c-0.12,0.12-0.19,0.28-0.19,0.45v5.68
				c0,0.35,0.29,0.64,0.64,0.64s0.64-0.29,0.64-0.64v-5.42l1.79-1.79c1.36-1.35,2.27-3.07,2.64-4.95l0.96-4.87
				C41.5,20.9,41.36,20.22,40.97,19.66z"/>
		</g>
	</g>
	<g>
		<g>
			<path class="st0" d="M27.7,28.65c-0.35,0-0.64,0.29-0.64,0.64v1.87c0,2.09-0.82,4.06-2.3,5.54l-1.21,1.2
				c-0.12,0.12-0.19,0.28-0.19,0.45v2.59c0,0.35,0.29,0.64,0.64,0.64c0.35,0,0.64-0.29,0.64-0.64v-2.33l1.02-1.02
				c1.72-1.72,2.67-4.01,2.67-6.44v-1.87C28.34,28.93,28.05,28.65,27.7,28.65z"/>
		</g>
	</g>
	<g>
		<g>
			<path class="st0" d="M28.15,26.57c-0.12-0.12-0.28-0.19-0.45-0.19s-0.33,0.07-0.45,0.19c-0.12,0.12-0.19,0.28-0.19,0.45
				s0.07,0.33,0.19,0.45c0.12,0.12,0.28,0.19,0.45,0.19s0.33-0.07,0.45-0.19c0.12-0.12,0.19-0.28,0.19-0.45S28.27,26.69,28.15,26.57
				z"/>
		</g>
	</g>
	<g>
		<g>
			<path class="st0" d="M25.97,19.19c-0.4,0-0.77,0.1-1.1,0.27c-0.14-1.17-1.14-2.08-2.35-2.08c-0.41,0-0.79,0.1-1.13,0.29
				c-0.21-1.09-1.17-1.92-2.32-1.92s-2.11,0.83-2.32,1.92c-0.34-0.18-0.72-0.29-1.13-0.29c-1.3,0-2.36,1.06-2.36,2.36v6.2
				c-0.5-0.82-1.47-1.28-2.46-1.11c-0.64,0.11-1.2,0.47-1.56,1.01c-0.37,0.54-0.5,1.18-0.38,1.82l0.9,4.59
				c0.35,1.78,1.22,3.4,2.5,4.68l1.68,1.68v2.33c0,0.35,0.29,0.64,0.64,0.64s0.64-0.29,0.64-0.64v-2.59c0-0.17-0.07-0.33-0.19-0.45
				l-1.87-1.86c-1.11-1.1-1.85-2.5-2.15-4.03l-0.9-4.59c-0.06-0.3,0-0.6,0.18-0.86c0.17-0.25,0.43-0.42,0.73-0.47
				c0.58-0.1,1.15,0.27,1.29,0.84l0.47,1.91c0.11,0.44,0.52,0.73,0.97,0.67c0.45-0.05,0.78-0.43,0.78-0.88v-8.88
				c0-0.6,0.49-1.09,1.09-1.09c0.56,0,1.03,0.43,1.08,0.98v4.67c0,0.35,0.29,0.64,0.64,0.64c0,0,0,0,0,0c0,0,0,0,0,0
				c0.35,0,0.64-0.29,0.64-0.64v-4.55c0-0.05,0-0.11-0.01-0.16v-1.47c0-0.6,0.49-1.09,1.09-1.09c0.6,0,1.09,0.49,1.09,1.09v1.47
				c0,0.05-0.01,0.11-0.01,0.16v4.55c0,0.35,0.29,0.64,0.64,0.64c0,0,0,0,0,0c0,0,0,0,0,0c0.35,0,0.64-0.29,0.64-0.64v-4.67
				c0.06-0.55,0.52-0.98,1.08-0.98c0.6,0,1.09,0.49,1.09,1.09l-0.01,4.55c0,0.35,0.29,0.64,0.64,0.64c0,0,0,0,0,0c0,0,0,0,0,0
				c0.35,0,0.64-0.29,0.64-0.64v-2.86c0.06-0.55,0.52-0.98,1.08-0.98c0.6,0,1.09,0.49,1.09,1.09v2.97c0,0.35,0.29,0.64,0.64,0.64
				c0.35,0,0.64-0.29,0.64-0.64v-2.97C28.34,20.25,27.28,19.19,25.97,19.19z"/>
		</g>
	</g>
	<g>
		<g>
			<path class="st0" d="M18.29,12.52l-3.36-3.36c-0.25-0.25-0.65-0.25-0.9,0c-0.25,0.25-0.25,0.65,0,0.9l3.36,3.36
				c0.12,0.12,0.29,0.19,0.45,0.19c0.16,0,0.33-0.06,0.45-0.19C18.54,13.17,18.54,12.76,18.29,12.52z"/>
		</g>
	</g>
	<g>
		<g>
			<path class="st0" d="M16.04,14.22h-1.55c-0.35,0-0.64,0.29-0.64,0.64s0.29,0.64,0.64,0.64h1.55c0.35,0,0.64-0.29,0.64-0.64
				S16.39,14.22,16.04,14.22z"/>
		</g>
	</g>
	<g>
		<g>
			<path class="st0" d="M19.71,8.97c-0.35,0-0.64,0.29-0.64,0.64v1.61c0,0.35,0.29,0.64,0.64,0.64c0.35,0,0.64-0.29,0.64-0.64V9.61
				C20.35,9.26,20.06,8.97,19.71,8.97z"/>
		</g>
	</g>
</g>
</svg>
