<?xml version="1.0" encoding="utf-8"?>
<!-- Generator: Adobe Illustrator 23.0.0, SVG Export Plug-In . SVG Version: 6.00 Build 0)  -->
<svg version="1.1" id="Layer_1" xmlns="http://www.w3.org/2000/svg" xmlns:xlink="http://www.w3.org/1999/xlink" x="0px" y="0px"
	 viewBox="0 0 50 50" style="enable-background:new 0 0 50 50;" xml:space="preserve">
<style type="text/css">
	.st0{fill:#D0B2D5;}
</style>
<g>
	<g>
		<g>
			<path class="st0" d="M45.2,31.2c-0.6-0.5-1.5-0.5-2.1,0c-2.8,2.1-6.1,3.2-9.6,3.2c-1,0-1.9-0.1-2.8-0.3c-0.4-0.1-0.7,0.2-0.8,0.5
				c-0.1,0.4,0.2,0.7,0.5,0.8c1,0.2,2,0.3,3.1,0.3c3.8,0,7.4-1.2,10.4-3.5c0.1-0.1,0.3-0.1,0.4,0c0.1,0.1,0.2,0.3,0.1,0.4
				c-1.5,3.2-3.8,6-6.8,8c-3.1,2-6.6,3.1-10.3,3.1c-10.4,0-18.9-8.5-18.9-18.9c0-3.7,1.1-7.3,3.1-10.3c2-3,4.7-5.4,8-6.8
				c0.1-0.1,0.3,0,0.4,0.1c0.1,0.1,0.1,0.3,0,0.4c-2.3,3-3.5,6.6-3.5,10.4c0,3.7,1.1,7.2,3.3,10.1c2.1,2.9,5.1,5,8.4,6.1
				c0.4,0.1,0.7-0.1,0.9-0.4c0.1-0.4-0.1-0.7-0.4-0.9c-6.5-2.1-10.8-8.2-10.8-15c0-3.5,1.1-6.8,3.2-9.6c0.5-0.6,0.5-1.5,0-2.1
				c-0.5-0.6-1.3-0.8-2.1-0.5c-3.5,1.6-6.4,4.1-8.5,7.3C8.2,17,7,20.9,7,24.8C7,36,16.1,45,27.2,45c4,0,7.8-1.1,11.1-3.3
				c3.2-2.1,5.7-5,7.3-8.5C46,32.5,45.8,31.6,45.2,31.2z"/>
			<path class="st0" d="M25.5,18.5c1.6,0,2.9,1.3,2.9,2.9c0,0.4,0.3,0.7,0.7,0.7s0.7-0.3,0.7-0.7c0-1.6,1.3-2.9,2.9-2.9
				c0.4,0,0.7-0.3,0.7-0.7s-0.3-0.7-0.7-0.7c-1.6,0-2.9-1.3-2.9-2.9c0-0.4-0.3-0.7-0.7-0.7s-0.7,0.3-0.7,0.7c0,1.6-1.3,2.9-2.9,2.9
				c-0.4,0-0.7,0.3-0.7,0.7C24.9,18.2,25.2,18.5,25.5,18.5z M29.1,16.5c0.3,0.5,0.8,1,1.3,1.3c-0.5,0.3-1,0.8-1.3,1.3
				c-0.3-0.5-0.8-1-1.3-1.3C28.4,17.5,28.8,17,29.1,16.5z"/>
			<path class="st0" d="M35.2,27.3c1.2,0,2.1-1,2.1-2.1c0-1.2-1-2.1-2.1-2.1s-2.1,1-2.1,2.1C33.1,26.3,34,27.3,35.2,27.3z
				 M35.2,24.4c0.4,0,0.8,0.3,0.8,0.8c0,0.4-0.3,0.8-0.8,0.8s-0.8-0.3-0.8-0.8C34.4,24.7,34.8,24.4,35.2,24.4z"/>
			<path class="st0" d="M9.1,39.7c-1.2,0-2.1,1-2.1,2.1s1,2.1,2.1,2.1s2.1-1,2.1-2.1S10.3,39.7,9.1,39.7z M9.1,42.6
				c-0.4,0-0.8-0.3-0.8-0.8c0-0.4,0.3-0.8,0.8-0.8s0.8,0.3,0.8,0.8C9.9,42.2,9.5,42.6,9.1,42.6z"/>
			<circle class="st0" cx="29.1" cy="26" r="0.9"/>
			<circle class="st0" cx="6.8" cy="36.2" r="0.9"/>
			<circle class="st0" cx="34.6" cy="12.8" r="0.9"/>
		</g>
	</g>
</g>
</svg>
