<?xml version="1.0" encoding="utf-8"?>
<!-- Generator: Adobe Illustrator 23.0.0, SVG Export Plug-In . SVG Version: 6.00 Build 0)  -->
<svg version="1.1" id="Layer_1" xmlns="http://www.w3.org/2000/svg" xmlns:xlink="http://www.w3.org/1999/xlink" x="0px" y="0px"
	 viewBox="0 0 50 50" style="enable-background:new 0 0 50 50;" xml:space="preserve">
<style type="text/css">
	.st0{fill:#D0B2D5;}
</style>
<g>
	<g>
		<path class="st0" d="M15.02,15.88c-0.09,0.46-0.05,0.94,0.13,1.38c0.02,0.05,0.05,0.09,0.07,0.13c-0.34,0.45-0.64,0.92-0.92,1.37
			c-0.63,1.2-1.54,2.22-2.67,2.96c-2.69,1.61-2.81,2.49-2.05,3.96L9.7,25.9c0.46,0.92,1.54,3.07,3.2,3.34
			c0.12,0.02,0.23,0.03,0.35,0.03c0.75-0.04,1.45-0.37,1.94-0.94c1.82-1.82,3.22-2.45,4.75-2.63c0.01,0.11,0.05,0.21,0.11,0.3
			c0.02,0.02,1.55,1.97,0.55,3.32c-1.7,1.06-3.01,2.65-3.73,4.52c-0.86,2.31-0.53,5.57,1.77,7.32c1.07,0.75,2.36,1.12,3.67,1.06
			c0.13,0,0.28-0.02,0.42-0.02c0.03,0.01,0.06,0.02,0.09,0.02c0.07,0,0.13-0.01,0.19-0.04c0.14-0.01,0.26-0.01,0.4-0.02
			c0.7-0.06,1.39-0.17,2.07-0.33c0.67-0.13,1.31-0.35,1.92-0.67c0.81,0.29,1.66,0.42,2.52,0.41c0.42,0,0.82-0.02,1.18-0.06
			c1.7-0.07,3.36-0.54,4.84-1.38c1.6-0.96,2.65-2.62,2.84-4.47c0.01-0.1,0.01-0.19,0.02-0.29v-0.01c0.01-0.31-0.24-0.57-0.56-0.58
			c-0.15-0.01-0.3,0.04-0.41,0.15c-0.11,0.1-0.17,0.25-0.18,0.4c-0.01,0.04-0.15,0.32-1.04,0.82c-0.78,0.41-1.72,0.42-2.5,0
			c-0.27-0.15-0.44-0.32-0.47-0.47c-0.01-0.11,0.01-0.22,0.05-0.32c0.27-0.63,0.68-1.2,1.19-1.66c0.2-0.21,0.4-0.42,0.58-0.63
			c0.6-0.69,1.15-1.42,1.64-2.19c1.24-1.91,1.84-4.16,1.69-6.43c-0.53-6.91-8.28-9.54-10.27-10.11c0.2-0.68,0.18-1.4-0.06-2.06
			c-0.08-0.19-0.25-0.32-0.45-0.35c-1.77-0.25-2.96,0.11-3.75,0.66c-0.82-0.86-1.94-1.38-3.13-1.46c-1.2-0.02-2.37,0.37-3.32,1.11
			L9.19,8.01C8.81,7.81,8.34,7.94,8.1,8.3C7.86,8.65,7.91,9.12,8.23,9.4L15.02,15.88z M21.2,25.64c1.66-0.11,3.25-0.72,4.55-1.75
			c-0.06,0.34-0.15,0.67-0.26,1c-0.59,1.62-1.82,2.93-3.41,3.61C22.1,27.47,21.79,26.47,21.2,25.64L21.2,25.64z M25.22,40.72
			c-0.63,0.15-1.27,0.25-1.92,0.31c-0.08,0.01-0.15,0.01-0.22,0.01c-0.71-1.04-3.03-4.97,0.14-8.14c0.22-0.22,0.21-0.58-0.01-0.8
			c-0.22-0.22-0.58-0.22-0.8-0.01c-3.24,3.24-1.65,7.18-0.65,8.96c-0.87-0.02-1.72-0.3-2.43-0.8c-1.83-1.4-2.08-4.15-1.39-6.02
			c0.65-1.68,1.84-3.09,3.38-4.03c0.37-0.23,0.75-0.44,1.14-0.62c1.92-0.8,3.41-2.37,4.12-4.33c1.16-3.29-0.12-7-0.72-8.43
			c0.27-0.1,0.53-0.22,0.78-0.35c2.22,1.03,3.99,2.83,4.97,5.07c0.68,1.47,0.97,3.09,0.87,4.71c-0.23,2.49-1.97,3.76-3.98,5.22
			c-1.08,0.73-2.01,1.66-2.73,2.74c-0.72,1.27-0.92,2.77-0.57,4.18c0.11,0.77,0.46,1.49,1.01,2.04
			C25.89,40.56,25.55,40.64,25.22,40.72L25.22,40.72z M37.65,24.54c0.13,2.03-0.4,4.04-1.51,5.74c-0.47,0.72-0.98,1.41-1.55,2.06
			c-0.17,0.2-0.35,0.39-0.53,0.58c-0.64,0.58-1.13,1.29-1.45,2.09c-0.1,0.27-0.13,0.57-0.09,0.85c0.13,0.57,0.51,1.06,1.05,1.3
			c1.12,0.59,2.47,0.59,3.59-0.01l0.06-0.03c-0.42,0.85-1.07,1.56-1.88,2.05c-0.61,0.37-1.28,0.65-1.98,0.82
			c-0.12-0.06-0.26-0.08-0.39-0.05c-0.75,0.17-1.55,0.01-2.17-0.46c-0.72-0.68-0.92-2.07-0.56-4.03c0.04-0.2-0.04-0.41-0.19-0.54
			c-0.16-0.13-0.37-0.17-0.56-0.1c-0.19,0.07-0.33,0.24-0.37,0.44c-0.44,2.39-0.13,4.1,0.91,5.07c0.04,0.04,0.08,0.07,0.12,0.1
			c-1.04,0.08-2.08-0.15-2.99-0.66c-0.47-0.39-0.77-0.95-0.83-1.56c-0.3-1.14-0.15-2.34,0.41-3.37c0.65-0.96,1.47-1.78,2.44-2.42
			c2.05-1.49,4.17-3.04,4.45-6.05c0.13-1.81-0.2-3.63-0.96-5.28c-1.02-2.29-2.77-4.17-4.97-5.36c0.11-0.11,0.2-0.22,0.3-0.34
			C29.26,15.73,37.16,18.15,37.65,24.54L37.65,24.54z M23.92,14.89c0.02-0.09,0.47-2.16,3.56-1.88c0.08,0.45,0.02,0.91-0.18,1.32
			c-0.36,0.72-1.16,1.26-2.38,1.61c-0.16,0.05-0.3,0.16-0.37,0.32c-0.07,0.16-0.06,0.33,0.01,0.49c0.79,1.69,1.24,3.52,1.33,5.39
			c-1.21,1.42-2.96,2.27-4.82,2.36c-2.26,0-4.17,0.51-6.69,3.03c-0.31,0.4-0.79,0.62-1.3,0.59c-1.09-0.18-2.01-2.03-2.36-2.73
			l-0.12-0.23c-0.43-0.82-0.58-1.13,1.62-2.45c1.28-0.83,2.34-1.98,3.05-3.34c0.23-0.37,0.46-0.71,0.7-1.05
			c0.6,0.47,1.29,0.81,2.03,1c0.03,0.01,0.06,0.02,0.09,0.03v-0.01c0.04,0.01,0.08,0.01,0.11,0.02c0.23,0,0.44-0.14,0.53-0.35
			c0.09-0.21,0.05-0.45-0.11-0.62c-0.04-0.13-0.08-0.26-0.1-0.39c-0.1-0.36-0.06-0.75,0.09-1.09c0.56-1.19,2.04-1.7,4.54-1.57
			c0.05,0,0.1,0,0.16,0.01C23.6,15.38,23.86,15.18,23.92,14.89L23.92,14.89z M21.07,12.27c0.9,0.06,1.74,0.46,2.37,1.1
			c-0.19,0.25-0.35,0.52-0.48,0.81c-1.27-0.06-4.28-0.08-5.38,2.23c-0.21,0.45-0.29,0.95-0.24,1.44c-0.53-0.21-0.96-0.63-1.18-1.16
			c-0.25-0.86,0.57-1.92,1.31-2.66c1.18-1.18,2.34-1.77,3.47-1.77C20.99,12.27,21.03,12.27,21.07,12.27L21.07,12.27z M16.87,13.04
			c-0.07,0.06-0.13,0.12-0.2,0.18c-0.46,0.45-0.86,0.95-1.19,1.5l-5.12-4.88L16.87,13.04z M16.87,13.04"/>
	</g>
	<path class="st0" d="M12.5,24.5c0-0.23-0.14-0.44-0.35-0.53c-0.21-0.09-0.46-0.04-0.62,0.12c-0.27,0.25-0.37,0.63-0.25,0.98
		c0.23,0.57,0.98,0.57,1.23,0.57c0.32,0,0.57-0.26,0.57-0.57C13.07,24.75,12.81,24.5,12.5,24.5L12.5,24.5z M12.5,24.5"/>
	<path class="st0" d="M21.51,17.65c-0.81,0.14-1.51,0.62-1.94,1.31c-0.28,0.52-0.34,1.14-0.17,1.71c0.03,0.1,0.09,0.19,0.17,0.25
		c0.26,0.2,0.57,0.31,0.9,0.3c0.3,0,0.6-0.08,0.87-0.22c0.28-0.14,0.4-0.49,0.25-0.77c-0.14-0.28-0.49-0.4-0.77-0.25
		c-0.12,0.06-0.25,0.09-0.38,0.1c-0.01-0.2,0.03-0.4,0.13-0.58c0.29-0.4,0.73-0.67,1.21-0.74c0.31-0.08,0.49-0.39,0.42-0.69
		C22.12,17.76,21.81,17.57,21.51,17.65L21.51,17.65z M21.51,17.65"/>
	<path class="st0" d="M27.96,29.07c0.1,0,0.2-0.03,0.29-0.08c0.13-0.08,3.23-2.01,1.39-7.53c-0.1-0.3-0.42-0.46-0.72-0.36
		c-0.3,0.1-0.46,0.42-0.36,0.72c1.53,4.59-0.79,6.12-0.9,6.19c-0.22,0.13-0.32,0.4-0.25,0.64C27.48,28.9,27.71,29.07,27.96,29.07
		L27.96,29.07z M27.96,29.07"/>
</g>
</svg>
