<?xml version="1.0" encoding="utf-8"?>
<!-- Generator: Adobe Illustrator 23.0.0, SVG Export Plug-In . SVG Version: 6.00 Build 0)  -->
<svg version="1.1" id="Layer_1" xmlns="http://www.w3.org/2000/svg" xmlns:xlink="http://www.w3.org/1999/xlink" x="0px" y="0px"
	 viewBox="0 0 50 50" style="enable-background:new 0 0 50 50;" xml:space="preserve">
<style type="text/css">
	.st0{fill:#D0B2D5;}
</style>
<g>
	<path class="st0" d="M6.8,33.9c0.4,0.5,1,0.8,1.7,0.8c0.7,0,1.3-0.3,1.7-0.8c0.2-0.2,0.5-0.4,0.8-0.4c0.3,0,0.6,0.1,0.8,0.4
		c0.4,0.5,1,0.8,1.7,0.8c0.7,0,1.3-0.3,1.7-0.8c0.2-0.2,0.5-0.4,0.8-0.4s0.6,0.1,0.8,0.4c0.4,0.5,1,0.8,1.7,0.8s1.3-0.3,1.7-0.8
		c0.2-0.2,0.5-0.4,0.8-0.4c0.3,0,0.6,0.1,0.8,0.4c0.4,0.5,1,0.8,1.7,0.8c0.7,0,1.3-0.3,1.7-0.8c0.2-0.2,0.5-0.4,0.7-0.4
		c0.3,0,0.6,0.1,0.8,0.4c0.4,0.5,1,0.8,1.7,0.8c0.7,0,1.3-0.3,1.7-0.8c0.2-0.2,0.5-0.4,0.7-0.4c0.3,0,0.6-0.3,0.6-0.6
		c0-0.3-0.3-0.6-0.6-0.6c-0.7,0-1.3,0.3-1.7,0.8c-0.2,0.2-0.5,0.4-0.7,0.4c-0.3,0-0.6-0.1-0.8-0.4c-0.4-0.5-1-0.8-1.7-0.8
		c-0.7,0-1.3,0.3-1.7,0.8c-0.2,0.2-0.5,0.4-0.8,0.4c-0.3,0-0.6-0.1-0.8-0.4c-0.4-0.5-1-0.8-1.7-0.8c-0.7,0-1.3,0.3-1.7,0.8
		c-0.2,0.2-0.5,0.4-0.8,0.4s-0.6-0.1-0.8-0.4c-0.4-0.5-1-0.8-1.7-0.8c-0.7,0-1.3,0.3-1.7,0.8c-0.2,0.2-0.5,0.4-0.8,0.4
		c-0.3,0-0.6-0.1-0.8-0.4c-0.4-0.5-1-0.8-1.7-0.8c-0.7,0-1.3,0.3-1.7,0.8c-0.2,0.2-0.5,0.4-0.8,0.4c-0.3,0-0.6-0.1-0.8-0.4
		c-0.1-0.2-0.4-0.3-0.6-0.2c-0.2,0-0.4,0.2-0.5,0.4C6.6,33.5,6.7,33.8,6.8,33.9z"/>
	<path class="st0" d="M42.7,28.1c-0.7,0-1.3,0.3-1.7,0.8c-0.2,0.2-0.5,0.4-0.8,0.4c-0.3,0-0.6-0.1-0.8-0.4c-0.4-0.5-1-0.8-1.7-0.8
		s-1.3,0.3-1.7,0.8c-0.2,0.2-0.5,0.4-0.8,0.4c-0.3,0-0.6-0.1-0.8-0.4c-0.4-0.5-1-0.8-1.7-0.8c-0.7,0-1.3,0.3-1.7,0.8
		c-0.2,0.2-0.5,0.4-0.8,0.4c-0.3,0-0.6-0.1-0.8-0.4c-0.4-0.5-1-0.8-1.7-0.8c-0.7,0-1.3,0.3-1.7,0.8c-0.2,0.2-0.5,0.4-0.8,0.4
		c-0.3,0-0.6-0.1-0.8-0.4c-0.4-0.5-1-0.8-1.7-0.8c-0.7,0-1.3,0.3-1.7,0.8c-0.2,0.2-0.5,0.4-0.8,0.4s-0.6-0.1-0.8-0.4
		c-0.2-0.3-0.6-0.3-0.9-0.1c-0.3,0.2-0.3,0.6-0.1,0.9c0.4,0.5,1,0.8,1.7,0.8c0.7,0,1.3-0.3,1.7-0.8c0.2-0.2,0.5-0.4,0.8-0.4
		c0.3,0,0.6,0.1,0.8,0.4c0.4,0.5,1,0.8,1.7,0.8c0.7,0,1.3-0.3,1.7-0.8c0.2-0.2,0.5-0.4,0.8-0.4c0.3,0,0.6,0.1,0.8,0.4
		c0.4,0.5,1,0.8,1.7,0.8c0.7,0,1.3-0.3,1.7-0.8c0.2-0.2,0.5-0.4,0.8-0.4c0.3,0,0.6,0.1,0.8,0.4c0.4,0.5,1,0.8,1.7,0.8
		c0.7,0,1.3-0.3,1.7-0.8c0.2-0.2,0.5-0.4,0.8-0.4s0.6,0.1,0.8,0.4c0.4,0.5,1,0.8,1.7,0.8c0.7,0,1.3-0.3,1.7-0.8
		c0.2-0.2,0.5-0.4,0.8-0.4c0.3,0,0.6-0.3,0.6-0.6C43.3,28.3,43,28.1,42.7,28.1z"/>
	<path class="st0" d="M42.7,36.6c-0.7,0-1.3,0.3-1.7,0.8c-0.2,0.2-0.5,0.4-0.8,0.4c-0.3,0-0.6-0.1-0.8-0.4c-0.4-0.5-1-0.8-1.7-0.8
		s-1.3,0.3-1.7,0.8c-0.2,0.2-0.5,0.4-0.8,0.4c-0.3,0-0.6-0.1-0.8-0.4c-0.4-0.5-1-0.8-1.7-0.8c-0.7,0-1.3,0.3-1.7,0.8
		c-0.2,0.2-0.5,0.4-0.8,0.4c-0.3,0-0.6-0.1-0.8-0.4c-0.4-0.5-1-0.8-1.7-0.8c-0.7,0-1.3,0.3-1.7,0.8c-0.2,0.2-0.5,0.4-0.8,0.4
		c-0.3,0-0.6-0.1-0.8-0.4c-0.4-0.5-1-0.8-1.7-0.8c-0.7,0-1.3,0.3-1.7,0.8c-0.2,0.2-0.5,0.4-0.8,0.4s-0.6-0.1-0.8-0.4
		c-0.2-0.3-0.6-0.3-0.9-0.1c-0.3,0.2-0.3,0.6-0.1,0.9c0.4,0.5,1,0.8,1.7,0.8c0.7,0,1.3-0.3,1.7-0.8c0.2-0.2,0.5-0.4,0.8-0.4
		c0.3,0,0.6,0.1,0.8,0.4c0.4,0.5,1,0.8,1.7,0.8c0.7,0,1.3-0.3,1.7-0.8c0.2-0.2,0.5-0.4,0.8-0.4c0.3,0,0.6,0.1,0.8,0.4
		c0.4,0.5,1,0.8,1.7,0.8c0.7,0,1.3-0.3,1.7-0.8c0.2-0.2,0.5-0.4,0.8-0.4c0.3,0,0.6,0.1,0.8,0.4c0.4,0.5,1,0.8,1.7,0.8
		c0.7,0,1.3-0.3,1.7-0.8c0.2-0.2,0.5-0.4,0.8-0.4c0.3,0,0.6,0.1,0.8,0.4c0.4,0.5,1,0.8,1.7,0.8c0.7,0,1.3-0.3,1.7-0.8
		c0.2-0.2,0.5-0.4,0.8-0.4c0.3,0,0.6-0.3,0.6-0.6C43.3,36.9,43,36.6,42.7,36.6z"/>
	<path class="st0" d="M30.5,40.9c-0.7,0-1.3,0.3-1.7,0.8c-0.2,0.2-0.5,0.4-0.7,0.4c-0.3,0-0.6-0.1-0.8-0.4c-0.4-0.5-1-0.8-1.7-0.8
		c-0.7,0-1.3,0.3-1.7,0.8c-0.2,0.2-0.5,0.4-0.8,0.4c-0.3,0-0.6-0.1-0.8-0.4c-0.4-0.5-1-0.8-1.7-0.8c-0.7,0-1.3,0.3-1.7,0.8
		c-0.2,0.2-0.5,0.4-0.8,0.4s-0.6-0.1-0.8-0.4c-0.4-0.5-1-0.8-1.7-0.8c-0.7,0-1.3,0.3-1.7,0.8c-0.2,0.2-0.5,0.4-0.8,0.4
		c-0.3,0-0.6-0.1-0.8-0.4c-0.4-0.5-1-0.8-1.7-0.8c-0.7,0-1.3,0.3-1.7,0.8c-0.2,0.2-0.5,0.4-0.8,0.4c-0.3,0-0.6-0.1-0.8-0.4
		c-0.1-0.2-0.4-0.3-0.6-0.2c-0.2,0-0.4,0.2-0.5,0.4c-0.1,0.2,0,0.4,0.1,0.6c0.4,0.5,1,0.8,1.7,0.8c0.7,0,1.3-0.3,1.7-0.8
		c0.2-0.2,0.5-0.4,0.8-0.4c0.3,0,0.6,0.1,0.8,0.4c0.4,0.5,1,0.8,1.7,0.8c0.7,0,1.3-0.3,1.7-0.8c0.2-0.2,0.5-0.4,0.8-0.4
		s0.6,0.1,0.8,0.4c0.4,0.5,1,0.8,1.7,0.8s1.3-0.3,1.7-0.8c0.2-0.2,0.5-0.4,0.8-0.4c0.3,0,0.6,0.1,0.8,0.4c0.4,0.5,1,0.8,1.7,0.8
		c0.7,0,1.3-0.3,1.7-0.8c0.2-0.2,0.5-0.4,0.7-0.4c0.3,0,0.6,0.1,0.8,0.4c0.4,0.5,1,0.8,1.7,0.8c0.7,0,1.3-0.3,1.7-0.8
		c0.2-0.2,0.5-0.4,0.7-0.4c0.3,0,0.6-0.3,0.6-0.6C31.1,41.1,30.8,40.9,30.5,40.9z"/>
	<path class="st0" d="M43.3,13.4c0-3-2-5.7-5-6.5c-2.9-0.8-6,0.5-7.5,3.1C29.6,8,27.4,6.7,25,6.7c-2.4,0-4.6,1.3-5.8,3.3
		c-1.6-2.8-4.9-4-7.9-3c-3,1-4.9,4-4.6,7.1c0.4,3.2,2.9,5.6,6.1,5.9v2.5H7.3c-0.3,0-0.6,0.3-0.6,0.6c0,0.3,0.3,0.6,0.6,0.6h5.5V25
		H7.3c-0.3,0-0.6,0.3-0.6,0.6s0.3,0.6,0.6,0.6h35.4c0.3,0,0.6-0.3,0.6-0.6S43,25,42.7,25h-5.5v-1.2h5.5c0.3,0,0.6-0.3,0.6-0.6
		c0-0.3-0.3-0.6-0.6-0.6h-5.5v-2.5C40.7,19.8,43.3,16.9,43.3,13.4z M36.6,7.9c2.9,0,5.3,2.3,5.5,5.2s-2,5.4-4.9,5.8v-2.1l2.8-1.7
		c0.3-0.2,0.4-0.5,0.2-0.8c-0.2-0.3-0.5-0.4-0.8-0.2l-2.1,1.3v-1.1l2.3-2.3c0.2-0.2,0.2-0.4,0.2-0.6c-0.1-0.2-0.2-0.4-0.4-0.4
		c-0.2-0.1-0.4,0-0.6,0.2l-2,2l-2-2C34.4,11,34.2,10.9,34,11c-0.2,0.1-0.4,0.2-0.4,0.4c-0.1,0.2,0,0.4,0.2,0.6l2.3,2.3v1.1l-2.1-1.3
		c-0.3-0.2-0.7-0.1-0.8,0.2c-0.2,0.3-0.1,0.7,0.2,0.8l2.8,1.7v2.1c-2.1-0.2-3.8-1.6-4.5-3.6c0.4-1.2,0.4-2.5,0-3.8
		C32.2,9.4,34.3,7.9,36.6,7.9z M25,7.9c2.9,0,5.3,2.3,5.5,5.2c0.2,2.9-2,5.4-4.9,5.8v-2.1l2.8-1.7c0.3-0.2,0.4-0.5,0.2-0.8
		c-0.2-0.3-0.5-0.4-0.8-0.2l-2.1,1.3v-1.1l2.3-2.3c0.2-0.2,0.2-0.4,0.2-0.6C28,11.2,27.8,11,27.6,11c-0.2-0.1-0.4,0-0.6,0.2l-2,2
		l-2-2c-0.2-0.2-0.4-0.2-0.6-0.2C22.2,11,22,11.2,22,11.4c-0.1,0.2,0,0.4,0.2,0.6l2.3,2.3v1.1l-2.1-1.3c-0.3-0.2-0.7-0.1-0.8,0.2
		c-0.2,0.3-0.1,0.7,0.2,0.8l2.8,1.7v2.1c-2.9-0.3-5-2.9-4.9-5.8C19.7,10.2,22.1,7.9,25,7.9z M7.9,13.4c0-2.7,1.9-4.9,4.5-5.4
		c2.6-0.5,5.2,1,6.1,3.5c-0.4,1.2-0.4,2.5,0,3.8c-0.7,2-2.5,3.3-4.5,3.6v-2.1l2.8-1.7c0.2-0.1,0.3-0.3,0.3-0.5
		c0-0.2-0.1-0.4-0.3-0.5s-0.4-0.1-0.6,0L14,15.4v-1.1l2.3-2.3c0.2-0.2,0.2-0.4,0.2-0.6C16.4,11.2,16.2,11,16,11
		c-0.2-0.1-0.4,0-0.6,0.2l-2,2l-2-2C11.3,11,11,10.9,10.8,11c-0.2,0.1-0.4,0.2-0.4,0.4c-0.1,0.2,0,0.4,0.2,0.6l2.3,2.3v1.1l-2.1-1.3
		c-0.2-0.1-0.4-0.1-0.6,0c-0.2,0.1-0.3,0.3-0.3,0.5c0,0.2,0.1,0.4,0.3,0.5l2.8,1.7v2.1C10,18.6,7.9,16.2,7.9,13.4z M14,20.1
		c2.2-0.2,4.1-1.4,5.2-3.3c1.1,1.9,3,3.1,5.2,3.3v2.5H14V20.1z M14,25v-1.2h10.4V25H14z M36,25H25.6v-1.2H36V25z M25.6,22.6v-2.5
		c2.2-0.2,4.1-1.4,5.2-3.3c1.1,1.9,3,3.1,5.2,3.3v2.5H25.6z"/>
	<path class="st0" d="M10.2,29.7c0.2-0.2,0.5-0.4,0.8-0.4c0.3,0,0.6,0.1,0.8,0.4c0.4,0.5,1,0.8,1.7,0.8c0.7,0,1.3-0.3,1.7-0.8
		c0.1-0.2,0.2-0.4,0.1-0.6s-0.3-0.4-0.5-0.4c-0.2,0-0.4,0-0.6,0.2c-0.2,0.2-0.5,0.4-0.8,0.4c-0.3,0-0.6-0.1-0.8-0.4
		c-0.4-0.5-1-0.8-1.7-0.8c-0.7,0-1.3,0.3-1.7,0.8c-0.2,0.2-0.5,0.4-0.8,0.4c-0.3,0-0.6-0.1-0.8-0.4c-0.1-0.2-0.4-0.3-0.6-0.2
		c-0.2,0-0.4,0.2-0.5,0.4s0,0.4,0.1,0.6c0.4,0.5,1,0.8,1.7,0.8C9.2,30.5,9.8,30.2,10.2,29.7z"/>
	<path class="st0" d="M6.8,38.2c0.4,0.5,1,0.8,1.7,0.8c0.7,0,1.3-0.3,1.7-0.8c0.2-0.2,0.5-0.4,0.8-0.4c0.3,0,0.6,0.1,0.8,0.4
		c0.4,0.5,1,0.8,1.7,0.8c0.7,0,1.3-0.3,1.7-0.8c0.1-0.2,0.2-0.4,0.1-0.6c-0.1-0.2-0.3-0.4-0.5-0.4c-0.2,0-0.4,0.1-0.6,0.2
		c-0.2,0.2-0.5,0.4-0.8,0.4c-0.3,0-0.6-0.1-0.8-0.4c-0.4-0.5-1-0.8-1.7-0.8c-0.7,0-1.3,0.3-1.7,0.8c-0.2,0.2-0.5,0.4-0.8,0.4
		c-0.3,0-0.6-0.1-0.8-0.4c-0.1-0.2-0.4-0.3-0.6-0.2c-0.2,0-0.4,0.2-0.5,0.4C6.6,37.8,6.7,38,6.8,38.2z"/>
	<path class="st0" d="M38.3,33.9c0.2-0.2,0.5-0.4,0.8-0.4c0.3,0,0.6,0.1,0.8,0.4c0.4,0.5,1,0.8,1.7,0.8c0.7,0,1.3-0.3,1.7-0.8
		c0.2-0.3,0.2-0.6-0.1-0.9c-0.3-0.2-0.6-0.2-0.9,0.1c-0.2,0.2-0.5,0.4-0.8,0.4c-0.3,0-0.6-0.1-0.8-0.4c-0.4-0.5-1-0.8-1.7-0.8
		c-0.7,0-1.3,0.3-1.7,0.8c-0.2,0.2-0.5,0.4-0.8,0.4c-0.3,0-0.6-0.1-0.8-0.4c-0.1-0.2-0.4-0.3-0.6-0.2c-0.2,0-0.4,0.2-0.5,0.4
		s0,0.4,0.1,0.6c0.4,0.5,1,0.8,1.7,0.8S37.9,34.5,38.3,33.9z"/>
	<path class="st0" d="M42.2,41.7c-0.2,0.2-0.5,0.4-0.8,0.4c-0.3,0-0.6-0.1-0.8-0.4c-0.4-0.5-1-0.8-1.7-0.8c-0.7,0-1.3,0.3-1.7,0.8
		c-0.2,0.2-0.5,0.4-0.8,0.4c-0.3,0-0.6-0.1-0.8-0.4c-0.1-0.2-0.4-0.3-0.6-0.2c-0.2,0-0.4,0.2-0.5,0.4s0,0.4,0.1,0.6
		c0.4,0.5,1,0.8,1.7,0.8s1.3-0.3,1.7-0.8c0.2-0.2,0.5-0.4,0.8-0.4c0.3,0,0.6,0.1,0.8,0.4c0.4,0.5,1,0.8,1.7,0.8
		c0.7,0,1.3-0.3,1.7-0.8c0.2-0.3,0.2-0.6-0.1-0.9S42.4,41.4,42.2,41.7z"/>
</g>
</svg>
