<?xml version="1.0" encoding="utf-8"?>
<!-- Generator: Adobe Illustrator 21.1.0, SVG Export Plug-In . SVG Version: 6.00 Build 0)  -->
<svg version="1.1" id="Layer_1" xmlns="http://www.w3.org/2000/svg" xmlns:xlink="http://www.w3.org/1999/xlink" x="0px" y="0px"
	 viewBox="0 0 100 100" style="enable-background:new 0 0 100 100;" xml:space="preserve">
<style type="text/css">
	.st0{fill:#D0B3D5;}
</style>
<g>
	<g>
		<path class="st0" d="M26,23.6c-0.3,1.3-0.1,2.7,0.4,4c0.1,0.1,0.1,0.3,0.2,0.4c-1,1.3-1.8,2.6-2.6,3.9c-1.8,3.4-4.4,6.4-7.7,8.5
			c-7.7,4.6-8.1,7.1-5.9,11.3l0.3,0.6c1.3,2.6,4.4,8.8,9.2,9.6c0.3,0,0.7,0.1,1,0.1c2.1-0.1,4.2-1.1,5.6-2.7c5.2-5.2,9.2-7,13.6-7.5
			c0,0.3,0.1,0.6,0.3,0.8c0,0.1,4.5,5.7,1.6,9.5c-4.9,3-8.7,7.6-10.7,13c-2.5,6.6-1.5,16,5.1,21c3.1,2.2,6.8,3.2,10.5,3
			c0.4,0,0.8,0,1.2-0.1c0.1,0,0.2,0.1,0.3,0.1c0.2,0,0.4,0,0.6-0.1c0.4,0,0.8,0,1.2-0.1c2-0.2,4-0.5,5.9-0.9c1.9-0.4,3.8-1,5.5-1.9
			c2.3,0.8,4.8,1.2,7.2,1.2c1.2,0,2.4-0.1,3.4-0.2c4.9-0.2,9.7-1.6,13.9-3.9c4.6-2.8,7.6-7.5,8.1-12.8c0-0.3,0-0.6,0.1-0.8v0
			c0-0.9-0.7-1.7-1.6-1.7c-0.4,0-0.9,0.1-1.2,0.4C91.2,78.6,91,79,91,79.5c0,0.1-0.4,0.9-3,2.3c-2.2,1.2-4.9,1.2-7.2,0
			c-0.8-0.4-1.3-0.9-1.3-1.4c0-0.3,0-0.6,0.1-0.9c0.8-1.8,2-3.4,3.4-4.8c0.6-0.6,1.1-1.2,1.7-1.8c1.7-2,3.3-4.1,4.7-6.3
			c3.6-5.5,5.3-12,4.8-18.5c-1.5-19.8-23.8-27.4-29.5-29c0.6-1.9,0.5-4-0.2-5.9c-0.2-0.5-0.7-0.9-1.3-1c-5.1-0.7-8.5,0.3-10.8,1.9
			c-2.4-2.5-5.6-4-9-4.2c-3.5-0.1-6.8,1.1-9.5,3.2L9.2,1C8.1,0.4,6.8,0.8,6.1,1.8C5.4,2.8,5.6,4.2,6.5,5L26,23.6z M43.7,51.6
			c4.8-0.3,9.3-2,13.1-5c-0.2,1-0.4,1.9-0.7,2.9c-1.7,4.7-5.2,8.4-9.8,10.4C46.3,56.9,45.4,54,43.7,51.6L43.7,51.6z M55.3,94.9
			c-1.8,0.4-3.7,0.7-5.5,0.9c-0.2,0-0.4,0-0.6,0c-2-3-8.7-14.3,0.4-23.4c0.6-0.6,0.6-1.7,0-2.3c-0.6-0.6-1.7-0.6-2.3,0
			c-9.3,9.3-4.8,20.6-1.9,25.7c-2.5-0.1-4.9-0.9-7-2.3c-5.3-4-6-11.9-4-17.3c1.9-4.8,5.3-8.9,9.7-11.6c1-0.7,2.2-1.3,3.3-1.8
			c5.5-2.3,9.8-6.8,11.8-12.4c3.3-9.5-0.3-20.1-2.1-24.2c0.8-0.3,1.5-0.6,2.3-1c6.4,3,11.4,8.1,14.3,14.6c1.9,4.2,2.8,8.9,2.5,13.5
			c-0.7,7.2-5.7,10.8-11.4,15c-3.1,2.1-5.8,4.8-7.8,7.9c-2.1,3.7-2.6,7.9-1.6,12c0.3,2.2,1.3,4.3,2.9,5.8
			C57.2,94.5,56.2,94.7,55.3,94.9L55.3,94.9z M91,48.5c0.4,5.8-1.2,11.6-4.3,16.5c-1.3,2.1-2.8,4.1-4.4,5.9c-0.5,0.6-1,1.1-1.5,1.7
			c-1.8,1.7-3.3,3.7-4.2,6c-0.3,0.8-0.4,1.6-0.3,2.4c0.4,1.7,1.5,3,3,3.7c3.2,1.7,7.1,1.7,10.3,0l0.2-0.1c-1.2,2.4-3.1,4.5-5.4,5.9
			c-1.8,1.1-3.7,1.9-5.7,2.4c-0.3-0.2-0.7-0.2-1.1-0.1c-2.2,0.5-4.4,0-6.2-1.3c-2.1-1.9-2.6-5.9-1.6-11.6c0.1-0.6-0.1-1.2-0.6-1.6
			c-0.4-0.4-1.1-0.5-1.6-0.3c-0.6,0.2-1,0.7-1.1,1.3C65.2,86.1,66.1,91,69,93.8c0.1,0.1,0.2,0.2,0.3,0.3c-3,0.2-6-0.4-8.6-1.9
			c-1.4-1.1-2.2-2.7-2.4-4.5C57.6,84.5,58,81,59.6,78c1.9-2.8,4.2-5.1,7-7c5.9-4.3,12-8.7,12.8-17.4c0.4-5.2-0.6-10.4-2.8-15.2
			c-2.9-6.6-7.9-12-14.3-15.4c0.3-0.3,0.6-0.6,0.8-1C66.9,23.2,89.6,30.1,91,48.5L91,48.5z M51.5,20.8c0-0.3,1.3-6.2,10.2-5.4
			c0.2,1.3,0,2.6-0.5,3.8c-1,2.1-3.3,3.6-6.8,4.6c-0.5,0.1-0.8,0.5-1,0.9s-0.2,1,0,1.4c2.3,4.9,3.5,10.1,3.8,15.5
			c-3.5,4.1-8.5,6.5-13.8,6.8c-6.5,0-12,1.5-19.2,8.7c-0.9,1.2-2.3,1.8-3.7,1.7c-3.1-0.5-5.8-5.8-6.8-7.8l-0.3-0.7
			c-1.2-2.4-1.7-3.2,4.6-7c3.7-2.4,6.7-5.7,8.8-9.6c0.7-1,1.3-2,2-3c1.7,1.4,3.7,2.3,5.8,2.9c0.1,0,0.2,0.1,0.3,0.1v0
			c0.1,0,0.2,0,0.3,0c0.7,0,1.3-0.4,1.5-1c0.3-0.6,0.1-1.3-0.3-1.8c-0.1-0.4-0.2-0.8-0.3-1.1c-0.3-1-0.2-2.1,0.3-3.1
			c1.6-3.4,5.8-4.9,13-4.5c0.2,0,0.3,0,0.5,0C50.6,22.1,51.4,21.6,51.5,20.8L51.5,20.8z M43.4,13.2c2.6,0.2,5,1.3,6.8,3.2
			c-0.5,0.7-1,1.5-1.4,2.3c-3.6-0.2-12.3-0.2-15.5,6.4c-0.6,1.3-0.8,2.7-0.7,4.1c-1.5-0.6-2.8-1.8-3.4-3.3c-0.7-2.5,1.6-5.5,3.8-7.6
			c3.4-3.4,6.7-5.1,10-5.1C43.1,13.2,43.2,13.2,43.4,13.2L43.4,13.2z M31.3,15.5c-0.2,0.2-0.4,0.3-0.6,0.5c-1.3,1.3-2.5,2.7-3.4,4.3
			l-14.7-14L31.3,15.5z"/>
	</g>
	<path class="st0" d="M18.7,48.3c0-0.7-0.4-1.3-1-1.5c-0.6-0.3-1.3-0.1-1.8,0.4c-0.8,0.7-1.1,1.8-0.7,2.8c0.7,1.6,2.8,1.6,3.5,1.6
		c0.9,0,1.6-0.7,1.6-1.6C20.4,49.1,19.6,48.3,18.7,48.3L18.7,48.3z"/>
	<path class="st0" d="M44.6,28.7c-2.3,0.4-4.3,1.8-5.6,3.8c-0.8,1.5-1,3.3-0.5,4.9c0.1,0.3,0.3,0.5,0.5,0.7c0.7,0.6,1.7,0.9,2.6,0.9
		c0.9,0,1.7-0.2,2.5-0.6c0.8-0.4,1.1-1.4,0.7-2.2c-0.4-0.8-1.4-1.1-2.2-0.7c-0.3,0.2-0.7,0.3-1.1,0.3c0-0.6,0.1-1.2,0.4-1.7
		c0.8-1.2,2.1-1.9,3.5-2.1c0.9-0.2,1.4-1.1,1.2-2C46.4,29,45.5,28.5,44.6,28.7L44.6,28.7z"/>
	<path class="st0" d="M63.2,61.5c0.3,0,0.6-0.1,0.8-0.2c0.4-0.2,9.3-5.8,4-21.6c-0.3-0.9-1.2-1.3-2.1-1s-1.3,1.2-1,2.1
		c4.4,13.2-2.3,17.6-2.6,17.8c-0.6,0.4-0.9,1.1-0.7,1.8C61.8,61,62.4,61.5,63.2,61.5L63.2,61.5z"/>
</g>
</svg>
