<?xml version="1.0" encoding="utf-8"?>
<!-- Generator: Adobe Illustrator 23.0.0, SVG Export Plug-In . SVG Version: 6.00 Build 0)  -->
<svg version="1.1" id="Layer_1" xmlns="http://www.w3.org/2000/svg" xmlns:xlink="http://www.w3.org/1999/xlink" x="0px" y="0px"
	 viewBox="0 0 50 50" style="enable-background:new 0 0 50 50;" xml:space="preserve">
<style type="text/css">
	.st0{fill:#D0B2D5;}
</style>
<g>
	<path class="st0" d="M30.8,17.8c-0.3,0-0.6,0.3-0.6,0.6v1.1c0,0.8,0.6,1.4,1.4,1.4h1.7c0.8,0,1.4-0.6,1.4-1.4v-4.9
		c0-0.8-0.6-1.4-1.4-1.4h-1.7c-0.8,0-1.4,0.6-1.4,1.4v1c0,0.3,0.3,0.6,0.6,0.6c0.3,0,0.6-0.3,0.6-0.6v-1c0-0.1,0.1-0.2,0.2-0.2h1.7
		c0.1,0,0.2,0.1,0.2,0.2v4.9c0,0.1-0.1,0.2-0.2,0.2h-1.7c-0.1,0-0.2-0.1-0.2-0.2v-1.1C31.5,18,31.2,17.8,30.8,17.8z"/>
	<path class="st0" d="M21.3,14.6c0-0.8-0.6-1.4-1.4-1.4h-1.7c-0.8,0-1.4,0.6-1.4,1.4v4.9c0,0.8,0.6,1.4,1.4,1.4h1.7
		c0.8,0,1.4-0.6,1.4-1.4V14.6z M20.1,19.4c0,0.1-0.1,0.2-0.2,0.2h-1.7c-0.1,0-0.2-0.1-0.2-0.2v-4.9c0-0.1,0.1-0.2,0.2-0.2h1.7
		c0.1,0,0.2,0.1,0.2,0.2V19.4z"/>
	<path class="st0" d="M24.8,20.9h1.7c0.8,0,1.4-0.6,1.4-1.4v-4.9c0-0.8-0.6-1.4-1.4-1.4h-1.7c-0.8,0-1.4,0.6-1.4,1.4v4.9
		C23.4,20.2,24,20.9,24.8,20.9z M24.6,14.6c0-0.1,0.1-0.2,0.2-0.2h1.7c0.1,0,0.2,0.1,0.2,0.2v4.9c0,0.1-0.1,0.2-0.2,0.2h-1.7
		c-0.1,0-0.2-0.1-0.2-0.2V14.6z"/>
	<path class="st0" d="M19.9,22.4h-1.7c-0.8,0-1.4,0.6-1.4,1.4v4.9c0,0.8,0.6,1.4,1.4,1.4h1.7c0.8,0,1.4-0.6,1.4-1.4v-4.9
		C21.3,23,20.7,22.4,19.9,22.4z M20.1,28.7c0,0.1-0.1,0.2-0.2,0.2h-1.7c-0.1,0-0.2-0.1-0.2-0.2v-4.9c0-0.1,0.1-0.2,0.2-0.2h1.7
		c0.1,0,0.2,0.1,0.2,0.2V28.7z"/>
	<path class="st0" d="M23.4,28.7c0,0.8,0.6,1.4,1.4,1.4h1.7c0.8,0,1.4-0.6,1.4-1.4v-4.9c0-0.8-0.6-1.4-1.4-1.4h-1.7
		c-0.8,0-1.4,0.6-1.4,1.4V28.7z M24.6,23.8c0-0.1,0.1-0.2,0.2-0.2h1.7c0.1,0,0.2,0.1,0.2,0.2v4.9c0,0.1-0.1,0.2-0.2,0.2h-1.7
		c-0.1,0-0.2-0.1-0.2-0.2V23.8z"/>
	<path class="st0" d="M30.2,28.7c0,0.8,0.6,1.4,1.4,1.4h1.7c0.8,0,1.4-0.6,1.4-1.4v-4.9c0-0.8-0.6-1.4-1.4-1.4h-1.7
		c-0.8,0-1.4,0.6-1.4,1.4V28.7z M31.5,23.8c0-0.1,0.1-0.2,0.2-0.2h1.7c0.1,0,0.2,0.1,0.2,0.2v4.9c0,0.1-0.1,0.2-0.2,0.2h-1.7
		c-0.1,0-0.2-0.1-0.2-0.2V23.8z"/>
	<path class="st0" d="M46,44.3h-3.9v-1.7H46c0.3,0,0.6-0.3,0.6-0.6c0-0.3-0.3-0.6-0.6-0.6h-4.8v-3.6c2.6-0.3,4.7-2.5,4.7-5.2
		c0-2.9-2.4-5.3-5.3-5.3c-0.9,0-1.8,0.2-2.6,0.7V10.5c0-0.8-0.6-1.4-1.4-1.4h-1.7V7.5c0-0.8-0.6-1.4-1.4-1.4h-8.6
		c-0.8,0-1.4,0.6-1.4,1.4v1.6h-3c-0.3,0-0.6,0.3-0.6,0.6c0,0.3,0.3,0.6,0.6,0.6h3c0.1,0.7,0.7,1.3,1.4,1.3h8.6
		c0.7,0,1.4-0.6,1.4-1.3h1.7c0.1,0,0.2,0.1,0.2,0.2v18.4c-0.9,1-1.5,2.2-1.5,3.7c0,1.4,0.6,2.7,1.5,3.7v5.1h-5.9v-6h0
		c0.8,0,1.4-0.6,1.4-1.4v-0.5c0-0.8-0.6-1.4-1.4-1.4H20.6c-0.8,0-1.4,0.6-1.4,1.4V34c0,0.8,0.6,1.4,1.4,1.4h0v6h-5.9v-5.1
		c0.9-1,1.5-2.2,1.5-3.7c0-1.4-0.6-2.7-1.5-3.7V10.5c0-0.1,0.1-0.2,0.2-0.2h2.7c0.3,0,0.6-0.3,0.6-0.6c0-0.3-0.3-0.6-0.6-0.6H15
		c-0.8,0-1.4,0.6-1.4,1.4V28c-0.8-0.4-1.6-0.7-2.6-0.7c-1,0-2,0.3-2.8,0.8C7.9,28.3,7.8,28.7,8,29c0.2,0.3,0.6,0.4,0.8,0.2
		c0.6-0.4,1.4-0.6,2.2-0.6c2.2,0,4.1,1.8,4.1,4.1c0,2-1.5,3.7-3.5,4v-1.3c0,0,0.1,0,0.1-0.1l1.4-1.4c0.2-0.2,0.2-0.6,0-0.9
		c-0.2-0.2-0.6-0.2-0.9,0l-0.6,0.6v-2c0-0.3-0.3-0.6-0.6-0.6c-0.3,0-0.6,0.3-0.6,0.6v5c-2-0.3-3.5-2-3.5-4c0-0.5,0.1-1.1,0.3-1.6
		c0.1-0.3,0-0.7-0.3-0.8c-0.3-0.1-0.7,0-0.8,0.3c-0.3,0.6-0.4,1.3-0.4,2c0,2.7,2,4.9,4.7,5.2v3.6H5.6C5.3,41.4,5,41.7,5,42
		c0,0.3,0.3,0.6,0.6,0.6h3.9v1.7H5.6c-0.3,0-0.6,0.3-0.6,0.6c0,0.3,0.3,0.6,0.6,0.6H46c0.3,0,0.6-0.3,0.6-0.6
		C46.6,44.6,46.3,44.3,46,44.3z M33.7,10.2c0,0.1-0.1,0.2-0.2,0.2h-8.6c-0.1,0-0.2-0.1-0.2-0.2V7.5c0-0.1,0.1-0.2,0.2-0.2h8.6
		c0.1,0,0.2,0.1,0.2,0.2V10.2z M40.9,44.3h-3.3v-1.7h3.3V44.3z M19.7,42.6h3.3v1.7h-3.3V42.6z M18.5,44.3h-3.3v-1.7h3.3V44.3z
		 M24.2,42.6h3.3v1.7h-3.3V42.6z M28.6,42.6h3.3v1.7h-3.3V42.6z M33.1,42.6h3.3v1.7h-3.3V42.6z M38,41.4v-4.2c0.6,0.3,1.3,0.5,2,0.6
		v3.6H38z M40.6,28.5c2.2,0,4.1,1.8,4.1,4.1c0,2-1.5,3.7-3.5,4v-1.3c0,0,0.1,0,0.1-0.1l1.4-1.4c0.2-0.2,0.2-0.6,0-0.9
		c-0.2-0.2-0.6-0.2-0.9,0l-0.6,0.6v-2c0-0.3-0.3-0.6-0.6-0.6c-0.3,0-0.6,0.3-0.6,0.6v5c-2-0.3-3.5-2-3.5-4
		C36.5,30.4,38.3,28.5,40.6,28.5z M29.7,41.4h-3.3v-6h3.3V41.4z M20.4,34v-0.5c0-0.1,0.1-0.2,0.2-0.2h10.3c0.1,0,0.2,0.1,0.2,0.2V34
		c0,0.1-0.1,0.2-0.2,0.2H20.6C20.5,34.2,20.4,34.1,20.4,34z M21.9,35.5h3.3v6h-3.3V35.5z M11.6,37.8c0.7-0.1,1.4-0.3,2-0.6v4.2h-2
		V37.8z M10.7,42.6H14v1.7h-3.3V42.6z"/>
</g>
</svg>
