<?xml version="1.0" encoding="utf-8"?>
<!-- Generator: Adobe Illustrator 23.0.0, SVG Export Plug-In . SVG Version: 6.00 Build 0)  -->
<svg version="1.1" id="Layer_1" xmlns="http://www.w3.org/2000/svg" xmlns:xlink="http://www.w3.org/1999/xlink" x="0px" y="0px"
	 viewBox="0 0 50 50" style="enable-background:new 0 0 50 50;" xml:space="preserve">
<style type="text/css">
	.st0{fill:#D0B2D5;}
</style>
<g>
	<path class="st0" d="M44.51,15.08L41.5,7.81c-0.13-0.3-0.47-0.45-0.77-0.32l-9.97,4.13c-0.3,0.13-0.45,0.47-0.32,0.77l0.08,0.19
		l-16.28,6.74c-0.15,0.06-0.26,0.18-0.32,0.32c-0.06,0.15-0.06,0.31,0,0.45l0.08,0.19l-6.18,2.56c-0.3,0.13-0.45,0.47-0.32,0.77
		l1.79,4.32c0.06,0.15,0.18,0.26,0.32,0.32c0.07,0.03,0.15,0.05,0.23,0.05s0.15-0.02,0.23-0.05l6.18-2.56l0.08,0.19
		c0.09,0.23,0.31,0.37,0.55,0.37c0.08,0,0.15-0.01,0.23-0.05l14.63-6.06c0.3-0.13,0.45-0.47,0.32-0.77
		c-0.13-0.3-0.47-0.45-0.77-0.32L17.18,24.9l-1.95-4.7l15.73-6.52l2.48,5.99c0.06,0.15,0.18,0.26,0.32,0.32
		c0.07,0.03,0.15,0.05,0.23,0.05c0.08,0,0.15-0.02,0.23-0.05l2.19-0.91c0,0,7.79-3.23,7.79-3.23c0.15-0.06,0.26-0.18,0.32-0.32
		C44.57,15.39,44.57,15.23,44.51,15.08L44.51,15.08z M15.78,24.62l-5.63,2.33l-1.34-3.23l5.63-2.33L15.78,24.62z M34.31,18.67
		l-2.48-5.99c0,0-0.08-0.19-0.08-0.19l1.09-0.45l2.56,6.18L34.31,18.67z M36.5,17.76l-2.56-6.18l6.69-2.77l2.56,6.18L36.5,17.76z"/>
	<path class="st0" d="M29.75,32.73h0.01c0.33,0,0.59-0.27,0.59-0.59s-0.27-0.59-0.59-0.59h-0.34l-0.54-1.94
		c-0.07-0.26-0.3-0.43-0.57-0.43h-1.72v-4.33l1.94-0.81c0.3-0.13,0.45-0.47,0.32-0.77c-0.13-0.3-0.47-0.45-0.77-0.32l-2.31,0.96
		c0,0,0,0-0.01,0l-2.3,0.95c-0.3,0.13-0.45,0.47-0.32,0.77c0.09,0.23,0.31,0.37,0.55,0.37c0.08,0,0.15-0.01,0.23-0.05l1.49-0.62
		v3.84h-1.72c-0.27,0-0.5,0.18-0.57,0.43l-0.54,1.94h-0.34c-0.33,0-0.59,0.27-0.59,0.59s0.27,0.59,0.59,0.59h0.01l-3.08,11.08
		c-0.09,0.32,0.1,0.64,0.41,0.73c0.31,0.09,0.64-0.1,0.73-0.41l3.17-11.4h1.93v11.24c0,0.33,0.27,0.59,0.59,0.59
		c0.33,0,0.59-0.27,0.59-0.59V32.73h1.93l3.17,11.4c0.07,0.26,0.31,0.43,0.57,0.43c0.05,0,0.11-0.01,0.16-0.02
		c0.32-0.09,0.5-0.41,0.41-0.73L29.75,32.73L29.75,32.73z M23.81,31.54l0.33-1.18h3.72l0.33,1.18H23.81L23.81,31.54z"/>
</g>
</svg>
