<?xml version="1.0" encoding="utf-8"?>
<!-- Generator: Adobe Illustrator 23.0.0, SVG Export Plug-In . SVG Version: 6.00 Build 0)  -->
<svg version="1.1" id="Layer_1" xmlns="http://www.w3.org/2000/svg" xmlns:xlink="http://www.w3.org/1999/xlink" x="0px" y="0px"
	 viewBox="0 0 50 50" style="enable-background:new 0 0 50 50;" xml:space="preserve">
<style type="text/css">
	.st0{fill:#D0B2D5;}
</style>
<path class="st0" d="M8.17,33.46l2.4,0.58c0.05,0.01,0.11,0.02,0.16,0.02h13.73c0.37,0,0.68-0.3,0.68-0.68V15.14
	c0-0.37-0.3-0.68-0.68-0.68s-0.68,0.3-0.68,0.68v10.58h-0.65c-1.31,0-2.61-0.29-3.79-0.84l-0.58-9.78
	c-0.02-0.37-0.34-0.66-0.72-0.64c-0.37,0.02-0.66,0.34-0.64,0.72l0.57,9.69l-4.68,1.93c-0.13,0.05-0.27,0.1-0.41,0.12
	c0,0,0,0-0.01,0c-0.13,0.03-0.27,0.04-0.4,0.04c0,0,0,0,0,0l-1.04,0c0,0,0,0-0.01,0c-1.49,0-2.82,0.94-3.32,2.35l-0.43,1.23
	c-0.03,0.07-0.04,0.15-0.04,0.22c0,0,0,0,0,0v2.03C7.66,33.12,7.87,33.39,8.17,33.46z M10.82,32.7l-1.81-0.44v-0.62l1.51,0.39
	c0.06,0.01,0.11,0.02,0.17,0.02h13.1v0.64H10.82z M9.41,29.77c0.3-0.86,1.12-1.44,2.04-1.44h0l1.04,0h0.01
	c0.1,0,0.19-0.01,0.29-0.01l1.05,1.06c0.13,0.13,0.31,0.2,0.48,0.2c0.17,0,0.35-0.07,0.48-0.2c0.26-0.26,0.26-0.69,0-0.96
	l-0.53-0.53l0.85-0.35l1.06,1.06c0.13,0.13,0.31,0.2,0.48,0.2c0.17,0,0.35-0.07,0.48-0.2c0.26-0.26,0.26-0.69,0-0.96l-0.66-0.66
	l0.64-0.26l1.05,1.05c0.13,0.13,0.31,0.2,0.48,0.2c0.17,0,0.35-0.07,0.48-0.2c0.26-0.26,0.26-0.69,0-0.96l-0.65-0.65l0.21-0.09
	c1.39,0.67,2.93,1.02,4.47,1.02h0.65v3.63H10.77l-1.56-0.41L9.41,29.77z"/>
<path class="st0" d="M26.11,33.63c0.01,0.08,0.04,0.15,0.08,0.21c0,0,0,0,0,0l1.01,1.75c0.12,0.21,0.35,0.34,0.59,0.34
	c0.06,0,0.13-0.01,0.19-0.03l2.37-0.7c0.05-0.02,0.1-0.04,0.15-0.06l10.95-6.32c0.41-0.24,0.7-0.62,0.82-1.07
	c0.12-0.45,0.06-0.93-0.18-1.34l-0.45-0.79l-2.46-4.27l-3.39-9.1c-0.13-0.35-0.52-0.53-0.87-0.4c-0.35,0.13-0.53,0.52-0.4,0.87
	l3.21,8.62l-0.65,0.38c-1.11,0.64-2.35,1.04-3.63,1.16l-3.58-8.02c-0.15-0.34-0.55-0.5-0.89-0.34c-0.34,0.15-0.5,0.55-0.34,0.89
	l3.61,8.09l-3.14,4.08c-0.09,0.11-0.18,0.21-0.29,0.31c0,0-0.01,0-0.01,0.01c-0.1,0.09-0.21,0.17-0.33,0.23l-0.9,0.52
	c-1.29,0.74-1.98,2.23-1.7,3.69L26.11,33.63z M40.97,27.41c-0.03,0.11-0.1,0.19-0.19,0.25L29.9,33.94l-1.78,0.53l-0.31-0.53
	l1.5-0.41c0.06-0.02,0.11-0.04,0.16-0.07l11.34-6.55l0.12,0.2C40.98,27.19,40.99,27.3,40.97,27.41z M28.25,29.83l0.9-0.52
	c0.09-0.05,0.17-0.1,0.25-0.16l1.44,0.39c0.06,0.02,0.12,0.02,0.18,0.02c0.3,0,0.57-0.2,0.65-0.5c0.1-0.36-0.12-0.73-0.48-0.83
	l-0.72-0.19l0.56-0.73l1.45,0.39c0.06,0.02,0.12,0.02,0.18,0.02c0.3,0,0.57-0.2,0.65-0.5c0.1-0.36-0.12-0.73-0.48-0.83l-0.91-0.24
	l0.42-0.55l1.44,0.38c0.06,0.02,0.12,0.02,0.18,0.02c0.3,0,0.57-0.2,0.65-0.5c0.1-0.36-0.12-0.73-0.48-0.83l-0.89-0.24l0.14-0.18
	c1.54-0.12,3.05-0.58,4.38-1.35l0.56-0.33l1.82,3.14l-11.27,6.51l-1.55,0.43l-0.11-0.56C27.04,31.2,27.46,30.29,28.25,29.83z"/>
<path class="st0" d="M15.02,36.88H8.33c-0.37,0-0.68,0.3-0.68,0.68c0,0.37,0.3,0.68,0.68,0.68h6.68c0.37,0,0.68-0.3,0.68-0.68
	C15.69,37.18,15.39,36.88,15.02,36.88z"/>
<path class="st0" d="M18.42,36.88c-0.18,0-0.35,0.07-0.48,0.2c-0.13,0.13-0.2,0.3-0.2,0.48c0,0.18,0.07,0.35,0.2,0.48
	c0.13,0.13,0.3,0.2,0.48,0.2c0.18,0,0.35-0.07,0.48-0.2c0.13-0.13,0.2-0.3,0.2-0.48c0-0.18-0.07-0.35-0.2-0.48
	C18.78,36.95,18.6,36.88,18.42,36.88z"/>
<path class="st0" d="M41.65,35.32h-6.68c-0.37,0-0.68,0.3-0.68,0.68c0,0.37,0.3,0.68,0.68,0.68h6.68c0.37,0,0.68-0.3,0.68-0.68
	C42.33,35.62,42.03,35.32,41.65,35.32z"/>
<path class="st0" d="M31.68,38.03h-6.68c-0.37,0-0.68,0.3-0.68,0.68c0,0.37,0.3,0.68,0.68,0.68h6.68c0.37,0,0.68-0.3,0.68-0.68
	C32.36,38.33,32.05,38.03,31.68,38.03z"/>
</svg>
