<?xml version="1.0" encoding="utf-8"?>
<!-- Generator: Adobe Illustrator 23.0.0, SVG Export Plug-In . SVG Version: 6.00 Build 0)  -->
<svg version="1.1" id="Layer_1" xmlns="http://www.w3.org/2000/svg" xmlns:xlink="http://www.w3.org/1999/xlink" x="0px" y="0px"
	 viewBox="0 0 50 50" style="enable-background:new 0 0 50 50;" xml:space="preserve">
<style type="text/css">
	.st0{fill:#D0B2D5;}
</style>
<g>
	<path class="st0" d="M38.53,14.78c-0.04,0-0.09,0-0.13-0.01c-0.04-0.01-0.08-0.02-0.12-0.04c-0.04-0.02-0.08-0.04-0.11-0.06
		c-0.04-0.02-0.07-0.05-0.1-0.08c-0.12-0.12-0.19-0.29-0.19-0.47c0-0.04,0-0.09,0.01-0.13c0.01-0.04,0.02-0.08,0.04-0.12
		c0.02-0.04,0.04-0.08,0.06-0.11c0.02-0.04,0.05-0.07,0.08-0.1c0.03-0.03,0.06-0.06,0.1-0.08c0.04-0.02,0.07-0.04,0.11-0.06
		c0.04-0.02,0.08-0.03,0.12-0.04c0.09-0.02,0.17-0.02,0.26,0c0.04,0.01,0.08,0.02,0.12,0.04c0.04,0.02,0.08,0.04,0.11,0.06
		c0.04,0.02,0.07,0.05,0.1,0.08c0.03,0.03,0.06,0.06,0.08,0.1c0.02,0.04,0.04,0.07,0.06,0.11c0.02,0.04,0.03,0.08,0.04,0.12
		c0.01,0.04,0.01,0.09,0.01,0.13c0,0.17-0.07,0.35-0.19,0.47c-0.03,0.03-0.06,0.06-0.1,0.08c-0.04,0.02-0.07,0.04-0.11,0.06
		s-0.08,0.03-0.12,0.04C38.62,14.78,38.58,14.78,38.53,14.78z"/>
	<path class="st0" d="M13.15,14.78c-0.04,0-0.09,0-0.13-0.01c-0.04-0.01-0.08-0.02-0.12-0.04c-0.04-0.02-0.08-0.04-0.11-0.06
		c-0.04-0.02-0.07-0.05-0.1-0.08c-0.03-0.03-0.06-0.06-0.08-0.1c-0.02-0.04-0.04-0.07-0.06-0.11c-0.02-0.04-0.03-0.08-0.04-0.12
		c-0.01-0.04-0.01-0.09-0.01-0.13c0-0.04,0-0.09,0.01-0.13c0.01-0.04,0.02-0.08,0.04-0.12c0.02-0.04,0.04-0.08,0.06-0.11
		c0.02-0.04,0.05-0.07,0.08-0.1c0.03-0.03,0.06-0.06,0.1-0.08c0.04-0.02,0.07-0.04,0.11-0.06c0.04-0.02,0.08-0.03,0.12-0.04
		c0.09-0.02,0.17-0.02,0.26,0c0.04,0.01,0.08,0.02,0.12,0.04c0.04,0.02,0.08,0.04,0.11,0.06c0.04,0.02,0.07,0.05,0.1,0.08
		c0.03,0.03,0.06,0.07,0.08,0.1c0.02,0.04,0.04,0.07,0.06,0.11c0.02,0.04,0.03,0.08,0.04,0.12c0.01,0.04,0.01,0.09,0.01,0.13
		c0,0.04,0,0.09-0.01,0.13c-0.01,0.04-0.02,0.08-0.04,0.12c-0.02,0.04-0.04,0.08-0.06,0.11c-0.02,0.04-0.05,0.07-0.08,0.1
		c-0.03,0.03-0.07,0.06-0.1,0.08c-0.04,0.02-0.07,0.04-0.11,0.06c-0.04,0.02-0.08,0.03-0.12,0.04
		C13.23,14.78,13.19,14.78,13.15,14.78z"/>
	<path class="st0" d="M42.28,36.36l-0.61-0.61c-0.35-0.35-0.82-0.55-1.32-0.55c-0.32,0-0.62,0.08-0.89,0.22l-2.6-2.6l0.8-0.8
		c0.73-0.73,0.73-1.91,0-2.64l-0.61-0.61c-0.35-0.35-0.82-0.55-1.32-0.55c-0.5,0-0.97,0.19-1.32,0.55l-0.55,0.55l-2.04-2.2
		l10.78-9.79c0.14-0.13,0.22-0.31,0.22-0.5L42.7,10.6c-0.01-0.36-0.29-0.64-0.65-0.65l-6.23-0.12c-0.19,0-0.38,0.08-0.5,0.22
		l-9.48,10.44l-9.47-10.44c-0.13-0.14-0.31-0.22-0.5-0.22L9.63,9.95c-0.36,0.01-0.64,0.29-0.65,0.65l-0.12,6.23
		c0,0.19,0.08,0.38,0.22,0.5l10.76,9.76l-2.02,2.22l-0.55-0.55c-0.35-0.35-0.82-0.55-1.32-0.55c-0.5,0-0.97,0.19-1.32,0.55
		l-0.61,0.61c-0.73,0.73-0.73,1.91,0,2.64l0.8,0.8l-2.6,2.6c-0.27-0.15-0.57-0.22-0.89-0.22c-0.5,0-0.97,0.19-1.32,0.55L9.4,36.36
		c-0.73,0.73-0.73,1.91,0,2.64l4.26,4.27c0.35,0.35,0.82,0.55,1.32,0.55c0.5,0,0.97-0.19,1.32-0.55l0.61-0.61
		c0.6-0.6,0.7-1.5,0.32-2.21l2.6-2.6l0.8,0.8c0.35,0.35,0.82,0.55,1.32,0.55c0.5,0,0.97-0.19,1.32-0.55l0.61-0.61
		c0.73-0.73,0.73-1.91,0-2.63l-0.55-0.55l2.47-2.25l2.53,2.25l-0.54,0.54c-0.73,0.73-0.73,1.91,0,2.64l0.61,0.61
		c0.35,0.35,0.82,0.55,1.32,0.55c0.5,0,0.97-0.19,1.32-0.55l0.8-0.8l2.6,2.6c-0.38,0.71-0.28,1.61,0.32,2.21l0.61,0.61
		c0.35,0.35,0.82,0.55,1.32,0.55c0.5,0,0.97-0.19,1.32-0.55l4.26-4.27C43.01,38.27,43.01,37.09,42.28,36.36z M32.92,30.27
		l-1.35,1.35l-2.23-2.23l1.5-1.36L32.92,30.27z M10.19,16.56l0.11-5.29l5.29-0.11l9.36,10.31l-1.67,1.84l-7.77-7.77
		c-0.26-0.26-0.68-0.26-0.94,0c-0.26,0.26-0.26,0.68,0,0.94l7.82,7.82l-1.66,1.83L10.19,16.56z M36.1,11.16l5.29,0.11l0.11,5.29
		L22.39,33.9l-1.35-1.35l16.07-16.08c0.26-0.26,0.26-0.68,0-0.94c-0.26-0.26-0.68-0.26-0.94,0L20.1,31.61l-1.35-1.35L36.1,11.16z
		 M15.97,41.71l-0.61,0.61c-0.1,0.1-0.24,0.16-0.38,0.16c-0.14,0-0.28-0.06-0.38-0.16l-4.26-4.27c-0.21-0.21-0.21-0.55,0-0.76
		l0.61-0.61c0.1-0.1,0.24-0.16,0.38-0.16c0.14,0,0.28,0.06,0.38,0.16l0.09,0.09c0,0,0,0,0,0l4.08,4.08c0,0,0,0,0,0l0.09,0.09
		C16.18,41.16,16.18,41.5,15.97,41.71z M16.35,39.45l-3.14-3.14l2.55-2.55l3.14,3.14L16.35,39.45z M22.95,37.09l-0.61,0.61
		c-0.1,0.1-0.24,0.16-0.38,0.16c-0.14,0-0.28-0.06-0.38-0.16l-6.62-6.62c-0.21-0.21-0.21-0.55,0-0.76l0.61-0.61
		c0.1-0.1,0.24-0.16,0.38-0.16s0.28,0.06,0.38,0.16l6.62,6.62C23.15,36.54,23.15,36.88,22.95,37.09z M26.8,31.7l1.57-1.42l2.27,2.28
		l-1.36,1.36L26.8,31.7z M30.11,37.7c-0.1,0.1-0.24,0.16-0.38,0.16c-0.14,0-0.28-0.06-0.38-0.16l-0.61-0.61
		c-0.21-0.21-0.21-0.56,0-0.77l6.61-6.61c0.1-0.1,0.24-0.16,0.38-0.16c0.14,0,0.28,0.06,0.38,0.16l0.61,0.61
		c0.21,0.21,0.21,0.55,0,0.77L30.11,37.7z M35.92,33.76l2.55,2.55l-3.14,3.14l-2.55-2.55L35.92,33.76z M41.34,38.06l-4.26,4.27
		c-0.1,0.1-0.24,0.16-0.38,0.16c-0.14,0-0.28-0.06-0.38-0.16l-0.61-0.61c-0.21-0.21-0.21-0.55,0-0.76l0.09-0.09c0,0,0,0,0,0
		l4.17-4.17c0.1-0.1,0.24-0.16,0.38-0.16s0.28,0.06,0.38,0.16l0.61,0.61C41.55,37.51,41.55,37.85,41.34,38.06z"/>
</g>
</svg>
