<?xml version="1.0" encoding="utf-8"?>
<!-- Generator: Adobe Illustrator 23.0.0, SVG Export Plug-In . SVG Version: 6.00 Build 0)  -->
<svg version="1.1" id="Layer_1" xmlns="http://www.w3.org/2000/svg" xmlns:xlink="http://www.w3.org/1999/xlink" x="0px" y="0px"
	 viewBox="0 0 50 50" style="enable-background:new 0 0 50 50;" xml:space="preserve">
<style type="text/css">
	.st0{fill:#D0B2D5;}
</style>
<g>
	<path class="st0" d="M28.4,29.3c3.3-2.1,5.5-5.5,6.1-9.4c0.3-1.8,0.2-3.6-0.2-5.3l-1.9-7.9c-0.1-0.3-0.4-0.6-0.7-0.6H20.1
		c-0.3,0-0.7,0.2-0.7,0.6l-1.9,7.9c-0.4,1.7-0.5,3.5-0.2,5.3c0.6,3.8,2.8,7.3,6.1,9.4l1.8,1.2v10l-5.9,2.9c-0.3,0.2-0.5,0.5-0.4,0.9
		c0.1,0.3,0.4,0.6,0.7,0.6h12.6c0.4,0,0.7-0.2,0.7-0.6c0.1-0.3-0.1-0.7-0.4-0.9l-5.9-2.9v-10L28.4,29.3z M20.7,7.7H31l1.5,6.4H19.2
		L20.7,7.7z M18.7,19.7c-0.2-1.4-0.2-2.8,0.1-4.1h14.1c0.3,1.4,0.3,2.8,0.1,4.1c-0.5,3.4-2.5,6.5-5.4,8.4l-1.7,1.1l-1.7-1.1
		C21.2,26.2,19.3,23.1,18.7,19.7z M22.7,43.4l3.1-1.5l3.1,1.5H22.7z"/>
	<path class="st0" d="M27.5,26c0.2,0,0.4-0.1,0.5-0.2c1.6-1.4,2.8-3.3,3.3-5.4c0.1-0.4-0.1-0.8-0.6-0.9c-0.4-0.1-0.8,0.1-0.9,0.6
		c-0.4,1.8-1.4,3.4-2.8,4.7c-0.3,0.3-0.3,0.8-0.1,1.1C27.1,25.9,27.3,26,27.5,26z"/>
	<path class="st0" d="M30.8,18.1c0.2,0,0.4-0.1,0.5-0.2c0.1-0.1,0.2-0.3,0.2-0.5c0-0.2-0.1-0.4-0.2-0.5c-0.1-0.1-0.3-0.2-0.5-0.2
		c-0.2,0-0.4,0.1-0.5,0.2S30,17.1,30,17.3c0,0.2,0.1,0.4,0.2,0.5C30.4,18,30.6,18.1,30.8,18.1z"/>
</g>
</svg>
