<svg id="Layer_1" data-name="Layer 1" xmlns="http://www.w3.org/2000/svg" xmlns:xlink="http://www.w3.org/1999/xlink" viewBox="0 0 174.7 50.76"><defs><style>.cls-1{fill:none;}.cls-2{fill:#fff;}.cls-3{clip-path:url(#clip-path);}.cls-4{fill:#ffe73f;}</style><clipPath id="clip-path" transform="translate(0 0)"><rect class="cls-1" width="174.7" height="50.76"/></clipPath></defs><title>note-logo</title><polygon class="cls-2" points="59.66 6.96 59.66 32.54 37.98 6.96 29.22 6.96 29.22 49.8 39.77 49.8 39.77 24.99 61.45 49.8 70.15 49.8 70.15 6.96 59.66 6.96"/><g class="cls-3"><path class="cls-2" d="M105.77,21.6a15.81,15.81,0,0,1,5.12,12.15A15.88,15.88,0,0,1,105.77,46,17.69,17.69,0,0,1,93.3,50.7,18,18,0,0,1,80.67,46a15.83,15.83,0,0,1-5.15-12.21A15.76,15.76,0,0,1,80.67,21.6,18,18,0,0,1,93.3,16.87a17.7,17.7,0,0,1,12.47,4.73m-7,18.13a8.16,8.16,0,0,0,2.3-6,8.1,8.1,0,0,0-2.33-6,7.41,7.41,0,0,0-5.4-2.33,7.66,7.66,0,0,0-5.56,2.33,8,8,0,0,0-2.37,6,8.1,8.1,0,0,0,2.33,6,7.63,7.63,0,0,0,5.6,2.33,7.39,7.39,0,0,0,5.44-2.33" transform="translate(0 0)"/><path class="cls-2" d="M140,48.4a18.41,18.41,0,0,1-8.76,2.37q-6.08,0-9.43-3.26T118.43,38V25.82h-5.82V17.7h5.82V7h10.23V17.7h9.46v8.12h-9.46V37q0,4.67,4.28,4.67a9.29,9.29,0,0,0,4.67-1.28Z" transform="translate(0 0)"/><path class="cls-2" d="M174.7,36.38H151.17a8.32,8.32,0,0,0,2.49,4.54,6.39,6.39,0,0,0,4.41,1.66q4.8,0,6.84-3.71L174,40.72a15.31,15.31,0,0,1-6.17,7.51,18.31,18.31,0,0,1-9.75,2.53,16.64,16.64,0,0,1-12-4.76,16.29,16.29,0,0,1-4.92-12.25,16.32,16.32,0,0,1,4.92-12.22,16.66,16.66,0,0,1,12.09-4.8,16,16,0,0,1,11.7,4.67q4.73,4.67,4.86,12.34ZM154,26.4a6.71,6.71,0,0,0-2.62,3.71H164.6a6.81,6.81,0,0,0-2.43-3.77,6.58,6.58,0,0,0-4-1.28A7.1,7.1,0,0,0,154,26.4" transform="translate(0 0)"/><path class="cls-4" d="M16.94,5.76c-1.4.17-2.78.29-4.14.37.46-.71.91-1.42,1.34-2.15.93-1.61-.8-5.43-2.15-3.11-.86,1.48-1.82,2.9-2.79,4.3C8.32,3.68,7.52,2.13,6.67.59,6.16-.33,5.12-.07,4.6.65A3.09,3.09,0,0,0,4.68,3.8L6,6.29c-1.51,0-3-.06-4.61-.12-2-.08-1.9,4.39.11,4.47,1.31.05,2.6.09,3.88.11-.39.62-.77,1.25-1.13,1.9a3,3,0,0,0,.08,3.16,1.18,1.18,0,0,0,2.07-.05c.84-1.51,1.78-2.95,2.75-4.37a20,20,0,0,0,4.21,4.35c1.94,1.44,2.86-2.8,1.39-3.89a15.79,15.79,0,0,1-1.49-1.27c1.24-.08,2.48-.19,3.75-.35,2-.24,1.82-4.7-.11-4.47" transform="translate(0 0)"/></g></svg>