<?xml version="1.0" encoding="utf-8"?>
<!-- Generator: Adobe Illustrator 23.0.0, SVG Export Plug-In . SVG Version: 6.00 Build 0)  -->
<svg version="1.1" id="Layer_1" xmlns="http://www.w3.org/2000/svg" xmlns:xlink="http://www.w3.org/1999/xlink" x="0px" y="0px"
	 viewBox="0 0 190 30" style="enable-background:new 0 0 190 30;" xml:space="preserve">
<style type="text/css">
	.st0{fill:#B2B4B7;}
	.st1{fill:#FFFFFF;}
</style>
<g>
	<g id="Owl_1_">
		<path class="st0" d="M12.03,14.81c0,0.85-0.71,1.56-1.56,1.56s-1.56-0.71-1.56-1.56c0-0.85,0.71-1.56,1.56-1.56
			S12.03,13.96,12.03,14.81z"/>
		<path class="st0" d="M30.84,14.81c0,0.85-0.71,1.56-1.56,1.56s-1.56-0.71-1.56-1.56c0-0.85,0.71-1.56,1.56-1.56
			S30.84,13.96,30.84,14.81z"/>
		<path class="st1" d="M5.8,14.81c0,2.55,2.12,4.67,4.67,4.67s4.67-2.12,4.67-4.67s-2.12-4.67-4.67-4.67S5.8,12.27,5.8,14.81z
			 M7.36,14.81c0-1.7,1.41-3.11,3.11-3.11s3.11,1.41,3.11,3.11s-1.41,3.11-3.11,3.11S7.36,16.51,7.36,14.81z M24.62,14.81
			c0,2.55,2.12,4.67,4.67,4.67s4.67-2.12,4.67-4.67s-2.12-4.67-4.67-4.67S24.62,12.27,24.62,14.81z M26.31,14.81
			c0-1.7,1.41-3.11,3.11-3.11c1.7,0,3.11,1.41,3.11,3.11s-1.41,3.11-3.11,3.11C27.59,17.92,26.31,16.51,26.31,14.81z"/>
		<path class="st1" d="M36.92,9.3c0.42-1.84,1.84-3.82,1.84-3.82h-6.22C29,3.21,24.76,1.94,19.95,1.94c-4.95,0-9.33,1.27-12.87,3.54
			L1.14,5.62c0,0,1.41,1.84,1.84,3.82c-1.13,1.56-1.84,3.39-1.84,5.52c0,5.23,4.24,9.48,9.48,9.48c2.97,0,5.66-1.41,7.35-3.54
			l1.98,2.97l1.98-2.97c0.85,1.13,2.12,2.12,3.39,2.69c2.26,0.99,4.81,1.13,7.21,0.28c4.81-1.84,7.35-7.21,5.52-12.16
			C37.91,10.85,37.49,10,36.92,9.3L36.92,9.3z M19.95,3.78c3.39,0,6.51,0.57,9.19,1.84c-0.99,0-1.98,0.14-2.97,0.57
			c-2.4,0.85-4.24,2.55-5.23,4.95c-0.42,0.99-0.71,2.12-0.85,3.25c-0.28-4.81-4.38-8.63-9.19-8.77C13.44,4.35,16.55,3.78,19.95,3.78
			L19.95,3.78z M16.84,19.2c-1.41,1.98-3.68,3.25-6.22,3.25c-4.1,0-7.5-3.39-7.5-7.5s3.39-7.5,7.5-7.5s7.5,3.25,7.5,7.5
			c0,0.28,0,0.42-0.14,0.71C17.83,16.93,17.54,18.07,16.84,19.2L16.84,19.2z M31.97,22.03c-1.84,0.71-3.96,0.57-5.8-0.28
			c-1.27-0.57-2.4-1.56-3.11-2.69c-0.28-0.42-0.57-0.99-0.85-1.56c-0.28-0.57-0.28-1.27-0.42-1.84c-0.14-1.27,0-2.69,0.57-3.82
			c0.85-1.84,2.4-3.25,4.24-3.96c3.96-1.41,8.2,0.57,9.62,4.38C37.91,16.23,35.79,20.61,31.97,22.03z"/>
	</g>
	<path class="st0" d="M136.35,3.64c0,0.99,0.85,1.84,1.84,1.84c0.99,0,1.84-0.85,1.84-1.84s-0.85-1.84-1.84-1.84
		S136.35,2.65,136.35,3.64z"/>
	<path class="st1" d="M49.93,3.5L47.1,4.49v3.54h-3.11v2.4h2.97v7.78c0,3.68,1.27,5.23,4.38,5.23c0.85,0,1.56-0.14,2.26-0.28h0.14
		v-2.55h-0.14c-0.57,0.14-1.13,0.28-1.41,0.28c-1.41,0-1.98-0.85-1.98-2.97v-7.5h3.54v-2.4h-3.54V3.36L49.93,3.5L49.93,3.5z
		 M59.41,10.43v-2.4h-2.83v15.13h3.11v-7.64c0-3.11,1.27-4.95,3.82-4.95c0.28,0,0.71,0,1.13,0.14h0.14V7.88l-1.27-0.14
		C61.81,7.74,60.26,8.73,59.41,10.43L59.41,10.43z M81.33,7.6c-2.12,0-3.82,0.99-5.09,2.83v-2.4h-2.83v21.22h3.11v-8.2
		c1.13,1.56,2.69,2.26,4.67,2.26c3.82,0,6.36-3.11,6.36-8.06C87.55,10.71,85.01,7.6,81.33,7.6z M80.48,20.89
		c-2.4,0-3.96-2.12-3.96-5.37s1.56-5.23,4.1-5.23c2.4,0,3.82,1.98,3.82,5.23C84.3,18.77,82.89,20.89,80.48,20.89L80.48,20.89z"/>
	<path class="st0" d="M96.46,7.6c-1.84,0-3.54,0.28-4.95,1.13h-0.14v2.55h0.28c1.41-0.85,2.83-1.27,4.1-1.27
		c2.26,0,3.54,1.27,3.54,3.54v0.14h-1.7c-5.09,0-7.78,1.84-7.78,5.09c0,2.69,1.98,4.53,4.81,4.53c2.12,0,3.68-0.85,4.95-2.4v2.12
		h2.83v-9.05C102.12,9.72,100.28,7.6,96.46,7.6L96.46,7.6z M99.15,16.79c0,2.55-1.56,4.24-3.96,4.24c-1.41,0-2.55-0.99-2.55-2.4
		c0-1.84,1.7-2.83,4.95-2.83h1.56L99.15,16.79L99.15,16.79z M115.13,0.81V10c-1.13-1.56-2.69-2.4-4.67-2.4
		c-3.68,0-6.22,3.11-6.22,7.64c0,4.67,2.55,8.06,6.22,8.06c2.12,0,3.82-0.99,4.95-2.83v2.55h2.83V0.81H115.13z M111.17,20.75
		c-2.26,0-3.82-1.98-3.82-5.37c0-3.25,1.41-5.37,3.68-5.37c2.55,0,4.1,1.98,4.1,5.37S113.58,20.75,111.17,20.75z M131.82,8.02
		l-4.38,8.77l-3.96-8.77h-3.39l7.35,15.13l7.64-15.13L131.82,8.02L131.82,8.02z M139.46,8.02h-2.83v15.13h3.11V8.02H139.46z
		 M143.28,11.84c0,2.12,1.41,3.25,4.1,4.53c1.7,0.85,2.55,1.27,2.55,2.55s-1.13,1.98-2.83,1.98c-1.13,0-2.55-0.28-3.82-0.99
		L143,19.76l-0.14,2.69H143c1.27,0.57,2.55,0.71,3.96,0.71c3.68,0,6.22-1.84,6.22-4.53c0-2.26-1.56-3.54-4.24-4.67
		c-1.98-0.85-2.69-1.41-2.69-2.4c0-0.85,0.85-1.56,2.26-1.56c1.27,0,2.55,0.28,3.68,0.85l0.28,0.14l0.14-2.55h-0.14
		c-1.27-0.42-2.55-0.57-3.68-0.57C145.54,7.88,143.28,9.44,143.28,11.84L143.28,11.84z M162.8,7.6c-4.67,0-7.5,2.97-7.5,7.92
		s2.83,7.92,7.5,7.92s7.5-2.97,7.5-7.92S167.46,7.6,162.8,7.6z M162.8,20.89c-2.55,0-4.24-2.12-4.24-5.37s1.7-5.52,4.24-5.52
		c2.55,0,4.24,2.12,4.24,5.52C167.04,18.77,165.48,20.89,162.8,20.89z M175.95,10.43v-2.4h-2.83v15.13h3.11v-7.64
		c0-3.11,1.27-4.95,3.82-4.95c0.28,0,0.71,0,1.13,0.14h0.14l0.14-2.97l-1.27-0.14C178.21,7.74,176.8,8.73,175.95,10.43L175.95,10.43
		z"/>
	<path class="st1" d="M70.3,8.02h-2.83v15.13h2.97V8.02H70.3z M67.05,3.64c0,0.99,0.85,1.84,1.84,1.84s1.84-0.85,1.84-1.84
		S69.87,1.8,68.88,1.8S67.05,2.65,67.05,3.64z"/>
	<path class="st0" d="M188.68,7.32c0.57,0.57,0.71,1.13,0.71,1.98c0,0.71-0.28,1.41-0.85,1.98c-0.57,0.57-1.27,0.85-1.98,0.85
		c-0.71,0-1.41-0.28-1.98-0.85s-0.85-1.13-0.85-1.84c0-0.71,0.28-1.41,0.85-1.98c0.57-0.57,1.13-0.71,1.84-0.71
		C187.41,6.47,188.11,6.75,188.68,7.32L188.68,7.32z M185.14,7.6c-0.42,0.42-0.71,0.99-0.71,1.56s0.28,1.13,0.71,1.56
		c0.42,0.42,0.99,0.71,1.56,0.71c0.57,0,1.13-0.28,1.56-0.71c0.42-0.42,0.71-0.99,0.71-1.56s-0.28-1.13-0.57-1.56
		c-0.42-0.42-0.99-0.71-1.56-0.71C186.13,7.03,185.57,7.18,185.14,7.6L185.14,7.6z M186.7,7.74c0.85,0,1.27,0.28,1.27,0.85
		c0,0.42-0.28,0.71-0.71,0.85l0.71,1.27h-0.85l-0.57-1.13h-0.14v1.13h-0.85V7.74L186.7,7.74L186.7,7.74z M186.42,9.01h0.28
		c0.42,0,0.57-0.14,0.57-0.42s-0.14-0.42-0.57-0.42h-0.28V9.01z"/>
</g>
</svg>
